<svg xmlns="http://www.w3.org/2000/svg" width="532" height="532">
  <path d="M532 265.984C532 412.926 412.922 532 265.992 532 119.098 532 0 412.926 0 265.984 0 119.078 119.09 0 265.992 0 412.922-.008 532 119.074 532 265.984M265.992 28.804C135 28.805 28.81 135.013 28.81 265.985c0 131.004 106.191 237.18 237.183 237.18 131.004 0 237.18-106.18 237.18-237.18.008-130.98-106.176-237.18-237.18-237.18m0 0" style="stroke:none;fill-rule:nonzero;fill:#fff;fill-opacity:1"/>
  <path d="M230.453 197.395c3.774 0 7.55-1.262 10.067-3.778l37.75-37.754c5.66-5.035 5.035-13.843 0-19.504-5.036-5.664-13.844-5.664-19.504 0l-14.473 14.477V65.652c0-7.547-6.293-13.843-13.844-13.843-7.547 0-13.844 6.293-13.844 13.843l-.003 85.176-14.47-14.469c-5.034-5.664-13.843-5.664-19.503 0-5.664 5.032-5.664 13.844 0 19.504l37.754 37.754c3.148 2.516 6.293 3.778 10.07 3.778m185.125 69.94h-.004c-4.054.571-8.219 1.161-12.086 1.161-2.515 0-5.035 0-7.547-.629-14.48-2.894-16.699-8.988-17.941-12.394q-.158-.445-.305-.82c-3.148-16.36-9.437-38.383-27.687-49.708l58.726-136.824c1.887-4.406 6.922-6.293 11.325-4.406l42.511 54.363 45.758 57.61c5.04 2.519 6.926 8.808 4.41 13.214L467.04 274.16c-6.922-6.293-16.36-9.433-27.055-9.433-1.925.191-3.91.378-5.898.574-4.512.433-9.05.87-12.98 1.308-1.793.2-3.649.461-5.528.727m13.707 136.442c-4.406 8.813-10.066 14.473-17.617 16.993-15.102 5.035-33.348-3.774-68.582-21.395-10.07-5.031-21.395-10.695-34.61-16.988-8.515-3.989-17.925-8.317-27.761-12.84l-.02-.008h-.004l-.015-.008c-13.418-6.172-27.625-12.703-41.414-19.234C209.688 337.082 182 323.87 166.27 316.32c-25.168-12.582-57.262-35.234-64.184-58.511-2.512-8.809-1.887-17.622 2.516-25.168 18.164-31.32 41.324-22.73 80.02-8.375l.523.195c15.101 5.66 30.199 9.434 45.3 10.695l.336 1.828c1.239 6.778 2.867 15.696 3.442 21.453 0 2.512 1.886 3.774 4.406 3.774h8.18c2.515 0 4.406-1.887 4.406-4.406-.625-6.297-1.887-15.73-3.149-22.653l1.621-.18c5.231-.574 10.93-1.199 16.625-2.335 1.887 11.324 3.149 20.136 3.778 26.426 0 2.515 1.887 3.777 4.406 3.777l7.55-.633c2.517 0 4.411-2.516 3.778-4.406-.476-6.207-1.68-14.223-2.781-21.578v-.004l-.004-.024c-.348-2.332-.687-4.593-.992-6.71 3.637-.989 7.273-1.81 10.543-2.544h.004l.004-.004c2.953-.664 5.609-1.261 7.695-1.859 2.516 16.992 3.777 27.055 3.777 32.09 0 2.516 1.887 3.773 4.407 3.773h8.18c2.515 0 4.406-1.886 4.406-4.406-.63-8.18-1.887-20.137-4.407-36.492 6.293-1.887 14.473-3.148 21.39.625 0 0 .63 0 .63.629 9.437 5.035 15.73 16.992 19.504 37.754 3.148 15.73 14.472 25.168 33.976 28.949 10.63 1.86 21.48.352 31.324-1.012 13.47-1.87 25.055-3.476 31.598 4.157 5.035 5.043 8.813 11.335 8.813 21.402 0 22.7-20.336 63.344-30.688 84.027l-.773 1.547Zm-133.394-69.21c-11.325-5.66-39.641-17.618-39.641-17.618-20.137-8.18-40.27-16.988-60.406-27.054-16.36-8.18-29.574-15.73-40.27-23.282-15.734-10.695-26.43-20.136-32.09-28.312-.21.422-.421.773-.632 1.125-.418.699-.84 1.394-1.254 2.648-1.891 3.149-1.891 6.297-.63 10.07 5.036 16.36 32.09 35.868 54.743 47.192 6.918 3.32 16.156 7.617 26.793 12.57h.004c13.539 6.297 29.351 13.656 45.558 21.406l.63.625c23.91 10.7 48.449 22.028 68.581 31.461 4.512 2.11 8.88 4.215 13.102 6.25h.004c4.61 2.223 9.05 4.364 13.324 6.336l8.809 4.407c2.656 1.296 5.23 2.562 7.726 3.789l.028.015c22.914 11.266 38.984 19.164 46.359 16.332.625 0 3.144-1.257 6.293-7.55l3.144-6.293c-22.644-9.446-88.082-39.02-120.18-54.118Zm-72.989 75.503c9.438 4.407 20.133.63 24.54-8.808 4.402-9.438.628-20.137-8.81-24.54L86.364 304.364c-9.437-4.406-20.136-.625-24.543 8.809-4.406 9.437-.625 20.133 8.809 24.539Zm-100.675-30.828-35.239 74.246 28.172 31.477 42.3-88.735Zm0 0" style="stroke:none;fill-rule:evenodd;fill:#fff;fill-opacity:1"/>
</svg>
