<svg xmlns="http://www.w3.org/2000/svg" width="300" height="300" fill="none">
  <path fill="#fff" d="M182.019 181.218c-58.59 58.612-114.476 77.551-127.095 64.025-3.606-3.607-3.606-9.017-3.606-13.526 0-24.347 23.437-71.236 73.013-117.228 5.409-4.509 5.409-12.625.902-18.035-4.508-5.41-12.621-5.41-18.029-.901-11.717 10.82-21.633 21.641-30.647 32.463C51.318 89.242 45.91 61.286 54.02 52.27c9.916-9.919 46.873-1.803 90.141 30.66 13.521 9.918 27.041 21.64 39.661 34.266 9.915 9.919 19.831 20.74 27.944 31.561-9.013 11.723-18.929 21.642-29.746 32.463zm64-127.143c9.014 9.018 2.705 37.875-20.732 74.843-8.113-9.919-16.225-18.936-25.239-28.855-9.014-9.018-18.929-18.036-28.844-26.15 37.86-24.348 65.802-28.855 74.815-19.838m18.029-18.035c-20.732-20.74-64.001-11.722-113.577 22.544C100.894 24.317 56.724 15.301 35.995 36.04 15.263 56.78 24.277 99.162 59.43 149.66c-20.73 29.757-33.35 58.612-33.35 82.058 0 16.231 6.31 26.15 10.817 31.56C45.009 271.394 54.924 275 67.543 275c37.86 0 91.04-33.365 132.506-74.843 9.014-9.017 18.028-18.937 25.239-28.856 24.337 37.875 29.746 65.827 20.732 74.843-7.211 7.213-27.944 4.509-52.281-8.116-6.309-2.706-13.521-.901-17.126 5.41-3.605 6.312-.901 13.527 5.409 17.133 18.929 9.919 36.957 14.428 50.479 14.428 12.62 0 22.535-3.608 30.647-11.722 20.732-20.74 11.718-64.025-22.536-113.62 31.551-44.184 45.971-90.172 23.438-113.617z"/>
  <path fill="#fff" d="M175.414 154.169c0 17.431-14.124 31.56-31.548 31.56-17.425 0-31.549-14.129-31.549-31.56s14.124-31.56 31.549-31.56 31.548 14.129 31.548 31.56"/>
</svg>
