<svg xmlns="http://www.w3.org/2000/svg" width="81" height="54" fill="none">
  <path fill="#BDBDBD" fill-rule="evenodd" d="M56.485 7.63C51.79 6.02 46.567 5 40.852 5c-17.55 0-30.315 9.499-37.577 16.356-3.389 3.165-3.389 8.123 0 11.288 2.222 2.098 4.96 4.444 8.192 6.69l4.561-3.213c-4.206-2.816-7.52-5.7-9.549-7.591-.847-.844-.847-2.005 0-2.849C11.684 20.723 25.481 9.33 40.852 9.33c3.702 0 7.314.667 10.736 1.75zm13.852 7.124-4.709 3.316a75 75 0 0 1 9.596 7.717c.726.738.726 1.793 0 2.532-5.204 4.958-18.88 16.457-34.372 16.457-3.707 0-7.31-.652-10.717-1.711l-4.78 3.367A48 48 0 0 0 40.852 49c17.549 0 30.435-9.499 37.697-16.567 3.268-3.165 3.268-7.912 0-10.971-2.22-2.097-4.967-4.45-8.212-6.708" clip-rule="evenodd"/>
  <path fill="#BDBDBD" fill-rule="evenodd" d="M46.147 14.91a11.8 11.8 0 0 0-5.28-1.243c-6.775 0-12.267 5.73-12.267 12.8q0 .395.022.785zm-9.51 23.576c1.319.505 2.743.78 4.23.78 6.643 0 12.054-5.511 12.26-12.392z" clip-rule="evenodd"/>
  <path stroke="#BDBDBD" stroke-linecap="round" stroke-width="6" d="M73.275 4.18 7.18 50.725"/>
</svg>
