<svg xmlns="http://www.w3.org/2000/svg" width="81" height="44" fill="none">
  <ellipse cx="40.866" cy="21.467" fill="#BDBDBD" rx="12.267" ry="12.8"/>
  <path fill="#BDBDBD" d="M40.852 44c-17.55 0-30.315-9.499-37.577-16.356-3.389-3.165-3.389-8.123 0-11.288C10.537 9.499 23.302 0 40.852 0s30.435 9.604 37.697 16.462c3.268 3.059 3.268 7.806 0 10.971C71.287 34.501 58.401 44 40.852 44M6.479 20.681c-.847.844-.847 2.005 0 2.849 5.205 4.852 18.88 16.246 34.373 16.246 15.491 0 29.168-11.5 34.372-16.457.726-.739.726-1.794 0-2.532C70.02 15.829 56.222 4.33 40.852 4.33S11.684 15.723 6.479 20.68"/>
</svg>
