<svg xmlns="http://www.w3.org/2000/svg" width="68" height="68" fill="none">
  <path fill="#3D3D3D" d="M34 8.636c-12.172 0-23.256 4.624-31.688 12.172-.748.68-.816 1.836-.204 2.584l2.652 3.06a1.83 1.83 0 0 0 2.584.136c7.072-6.392 16.388-10.268 26.588-10.268s19.516 3.876 26.588 10.268a1.83 1.83 0 0 0 2.584-.136l2.652-3.06c.68-.748.544-1.904-.204-2.584C57.256 13.26 46.172 8.636 34 8.636"/>
  <path fill="#3D3D3D" d="M34 22.032c-8.84 0-16.932 3.4-22.984 8.908-.748.68-.816 1.768-.136 2.516l2.516 2.924c.68.816 1.836.816 2.652.136 4.76-4.352 11.084-7.004 18.02-7.004s13.26 2.652 18.02 7.004c.748.68 1.972.68 2.652-.136l2.516-2.924c.612-.748.612-1.904-.136-2.516-6.188-5.576-14.28-8.908-23.12-8.908"/>
  <path fill="#3D3D3D" d="M34 35.36a20.55 20.55 0 0 0-14.347 5.78c-.68.68-.748 1.768-.068 2.516l2.38 2.788c.68.816 1.904.816 2.652.136A13.32 13.32 0 0 1 34 42.772c3.672 0 6.936 1.428 9.384 3.808.748.748 1.972.68 2.652-.136l2.38-2.788c.612-.748.612-1.836-.068-2.516A20.55 20.55 0 0 0 34 35.36"/>
  <path fill="#fff" d="M34 48.688a7.34 7.34 0 0 0-5.643 2.652 1.77 1.77 0 0 0 0 2.38l4.284 4.964c.748.816 2.04.816 2.787 0l4.285-4.964c.611-.68.611-1.7 0-2.38-1.428-1.632-3.468-2.652-5.712-2.652"/>
</svg>
