<svg width="24" height="42" viewBox="0 0 24 42" fill="none" xmlns="http://www.w3.org/2000/svg">
<path fill-rule="evenodd" clip-rule="evenodd" d="M3.2265 42C3.2265 41.0282 3.15054 40.2141 3.26228 39.4294C3.3099 39.0948 3.70043 38.7365 4.01893 38.5344C5.57173 37.5489 7.25857 36.7621 8.70427 35.6319C13.387 31.9708 16.1628 27.1512 16.3145 20.8905C16.3574 19.1128 15.7039 18.6687 14.2108 19.3612C9.90092 21.3604 5.26623 20.1883 2.79277 16.4731C0.0953566 12.421 0.475192 7.0259 3.70716 3.4862C7.83541 -1.03482 14.6281 -1.1701 19.3123 3.14764C22.1182 5.73404 23.4514 9.07362 23.7839 12.8722C24.8985 25.598 18.5156 36.0872 6.89848 40.695C5.74875 41.1508 4.56975 41.5252 3.2265 42Z" fill="lime"/>
</svg>
