<svg xmlns="http://www.w3.org/2000/svg" width="100" height="100" fill="none"><g fill="#fff" clip-path="url(#a)"><path d="M53.22 6.37a43.75 43.75 0 0 0-3.21-.12V0a50 50 0 0 1 3.68.14l-.47 6.23Zm12.53 2.81c-2-.77-4.06-1.4-6.16-1.87l1.37-6.1c2.4.54 4.75 1.25 7.04 2.14l-2.25 5.83Zm8.56 4.44c-.9-.6-1.8-1.16-2.74-1.69l3.08-5.44a50.15 50.15 0 0 1 6.12 4.09l-3.85 4.93a43.75 43.75 0 0 0-2.61-1.89ZM85.77 24.8a43.7 43.7 0 0 0-4.08-4.97l4.53-4.31a52.14 52.14 0 0 1 4.66 5.68l-5.1 3.6Zm4.65 8.45a36.5 36.5 0 0 0-1.34-2.92l5.59-2.81a48.6 48.6 0 0 1 2.8 6.8l-5.93 1.95a43.9 43.9 0 0 0-1.12-3.02Zm3.31 15.67a43.68 43.68 0 0 0-.62-6.4l6.15-1.07c.42 2.41.67 4.86.73 7.31l-6.25.16Zm-.81 9.61c.2-1.06.37-2.12.5-3.19l6.2.77a49.3 49.3 0 0 1-1.43 7.22l-6.02-1.67c.28-1.03.53-2.07.75-3.13ZM86.97 73.4A44.16 44.16 0 0 0 90 67.72l5.72 2.53c-1 2.25-2.16 4.42-3.47 6.49l-5.28-3.34Zm-6.03 7.53c.76-.77 1.5-1.55 2.19-2.36l4.74 4.08a49.2 49.2 0 0 1-2.51 2.7l-4.42-4.42Z"/><path d="M50 6.25a43.75 43.75 0 1 0 30.94 74.68l4.42 4.42A50 50 0 1 1 50 0v6.25Z"/><path d="M46.88 18.75a3.13 3.13 0 0 1 3.13 3.12v32.56l20.3 11.6a3.12 3.12 0 0 1-3.1 5.42l-21.88-12.5a3.12 3.12 0 0 1-1.57-2.7V21.86a3.12 3.12 0 0 1 3.12-3.12Z"/></g><defs><clipPath id="a"><path fill="#fff" d="M0 0h100v100H0z"/></clipPath></defs></svg>