<svg xmlns="http://www.w3.org/2000/svg" width="128" height="128" fill="#fff" class="bi bi-gear-fill"><path d="M75.24 8.4c-3.304-11.2-19.176-11.2-22.48 0l-.8 2.72a11.712 11.712 0 0 1-16.84 6.976l-2.48-1.36c-10.264-5.584-21.488 5.64-15.896 15.896l1.352 2.488c3.568 6.56.184 14.728-6.976 16.84l-2.72.8c-11.2 3.304-11.2 19.176 0 22.48l2.72.8a11.712 11.712 0 0 1 6.976 16.84l-1.36 2.48c-5.584 10.264 5.64 21.488 15.896 15.896l2.488-1.352a11.712 11.712 0 0 1 16.84 6.976l.8 2.72c3.304 11.2 19.176 11.2 22.48 0l.8-2.72a11.712 11.712 0 0 1 16.84-6.976l2.48 1.36c10.264 5.584 21.488-5.64 15.896-15.896l-1.352-2.488a11.712 11.712 0 0 1 6.976-16.84l2.72-.8c11.2-3.304 11.2-19.176 0-22.48l-2.72-.8a11.712 11.712 0 0 1-6.976-16.84l1.36-2.48c5.584-10.264-5.64-21.488-15.896-15.896l-2.488 1.352a11.712 11.712 0 0 1-16.84-6.976ZM64 87.44a23.44 23.44 0 1 1 0-46.88 23.432 23.432 0 0 1 0 46.864z" style="stroke-width:8"/></svg>
