<?xml version="1.0" encoding="UTF-8"?>
<svg xmlns="http://www.w3.org/2000/svg" xmlns:xlink="http://www.w3.org/1999/xlink" width="300" height="300" viewBox="0 0 300 300" version="1.1">
<g id="surface1">
<path style=" stroke:none;fill-rule:nonzero;fill:rgb(100%,100%,100%);fill-opacity:1;" d="M 93.75 159.359375 C 93.75 133.46875 114.75 112.484375 140.640625 112.5 L 168.75 112.5 L 168.75 85.019531 C 168.746094 83.203125 169.796875 81.546875 171.445312 80.773438 C 173.089844 80.003906 175.035156 80.253906 176.429688 81.421875 L 220.679688 118.261719 C 222.929688 120.148438 222.929688 123.601562 220.679688 125.460938 L 176.429688 162.359375 C 175.035156 163.527344 173.089844 163.777344 171.445312 163.003906 C 169.796875 162.234375 168.746094 160.578125 168.75 158.761719 L 168.75 131.25 L 140.609375 131.25 C 125.085938 131.25 112.5 143.835938 112.5 159.359375 L 112.5 206.25 L 93.75 206.25 Z M 93.75 159.359375 "/>
<path style=" stroke:none;fill-rule:evenodd;fill:rgb(100%,100%,100%);fill-opacity:1;" d="M 130.320312 8.160156 C 141.191406 -2.703125 158.808594 -2.703125 169.679688 8.160156 L 291.839844 130.320312 C 297.070312 135.53125 300.011719 142.613281 300.011719 150 C 300.011719 157.386719 297.070312 164.46875 291.839844 169.679688 L 169.679688 291.839844 C 158.828125 302.699219 141.230469 302.699219 130.378906 291.839844 L 8.128906 169.679688 C 2.90625 164.46875 -0.0273438 157.394531 -0.0273438 150.015625 C -0.0273438 142.636719 2.90625 135.5625 8.128906 130.351562 Z M 156.570312 21.269531 C 152.941406 17.644531 147.058594 17.644531 143.429688 21.269531 L 21.300781 143.429688 C 17.675781 147.058594 17.675781 152.941406 21.300781 156.570312 L 143.398438 278.699219 C 147.03125 282.324219 152.910156 282.324219 156.539062 278.699219 L 278.699219 156.601562 C 282.324219 152.96875 282.324219 147.089844 278.699219 143.460938 L 156.601562 21.300781 Z M 156.570312 21.269531 "/>
</g>
</svg>
