<?xml version="1.0" encoding="UTF-8"?>
<svg xmlns="http://www.w3.org/2000/svg" xmlns:xlink="http://www.w3.org/1999/xlink" width="532px" height="532px" viewBox="0 0 532 532" version="1.1">
<g id="surface1">
<path style=" stroke:none;fill-rule:nonzero;fill:rgb(100%,100%,100%);fill-opacity:1;" d="M 532 265.984375 C 532 412.925781 412.921875 532 265.992188 532 C 119.097656 532 0 412.925781 0 265.984375 C 0 119.078125 119.089844 0 265.992188 0 C 412.921875 -0.0078125 532 119.074219 532 265.984375 Z M 265.992188 28.804688 C 135 28.804688 28.808594 135.011719 28.808594 265.984375 C 28.808594 396.988281 135 503.164062 265.992188 503.164062 C 396.996094 503.164062 503.171875 396.984375 503.171875 265.984375 C 503.179688 135.003906 396.996094 28.804688 265.992188 28.804688 Z M 265.992188 28.804688 "/>
<path style=" stroke:none;fill-rule:evenodd;fill:rgb(100%,100%,100%);fill-opacity:1;" d="M 230.453125 197.394531 C 234.226562 197.394531 238.003906 196.132812 240.519531 193.617188 L 278.269531 155.863281 C 283.929688 150.828125 283.304688 142.019531 278.269531 136.359375 C 273.234375 130.695312 264.425781 130.695312 258.765625 136.359375 L 244.292969 150.835938 L 244.292969 65.652344 C 244.292969 58.105469 238 51.808594 230.449219 51.808594 C 222.902344 51.808594 216.605469 58.101562 216.605469 65.652344 L 216.601562 150.828125 L 202.132812 136.359375 C 197.097656 130.695312 188.289062 130.695312 182.628906 136.359375 C 176.964844 141.390625 176.964844 150.203125 182.628906 155.863281 L 220.382812 193.617188 C 223.53125 196.132812 226.675781 197.394531 230.453125 197.394531 Z M 415.578125 267.335938 L 415.574219 267.335938 C 411.519531 267.90625 407.355469 268.496094 403.488281 268.496094 C 400.972656 268.496094 398.453125 268.496094 395.941406 267.867188 C 381.460938 264.972656 379.242188 258.878906 378 255.472656 C 377.894531 255.175781 377.792969 254.902344 377.695312 254.652344 C 374.546875 238.292969 368.257812 216.269531 350.007812 204.945312 L 408.734375 68.121094 C 410.621094 63.714844 415.65625 61.828125 420.058594 63.714844 L 462.570312 118.078125 L 508.328125 175.6875 C 513.367188 178.207031 515.253906 184.496094 512.738281 188.902344 L 467.039062 274.160156 C 460.117188 267.867188 450.679688 264.726562 439.984375 264.726562 C 438.058594 264.917969 436.074219 265.105469 434.085938 265.300781 C 429.574219 265.734375 425.035156 266.171875 421.105469 266.609375 C 419.3125 266.808594 417.457031 267.070312 415.578125 267.335938 Z M 429.285156 403.777344 C 424.878906 412.589844 419.21875 418.25 411.667969 420.769531 C 396.566406 425.804688 378.320312 416.996094 343.085938 399.375 C 333.015625 394.34375 321.691406 388.679688 308.476562 382.386719 C 299.960938 378.398438 290.550781 374.070312 280.714844 369.546875 L 280.695312 369.539062 L 280.691406 369.539062 L 280.675781 369.53125 C 267.257812 363.359375 253.050781 356.828125 239.261719 350.296875 C 209.6875 337.082031 182 323.871094 166.269531 316.320312 C 141.101562 303.738281 109.007812 281.085938 102.085938 257.808594 C 99.574219 249 100.199219 240.1875 104.601562 232.640625 C 122.765625 201.320312 145.925781 209.910156 184.621094 224.265625 L 185.144531 224.460938 C 200.246094 230.121094 215.34375 233.894531 230.445312 235.15625 L 230.78125 236.984375 C 232.019531 243.761719 233.648438 252.679688 234.222656 258.4375 C 234.222656 260.949219 236.109375 262.210938 238.628906 262.210938 L 246.808594 262.210938 C 249.324219 262.210938 251.214844 260.324219 251.214844 257.804688 C 250.589844 251.507812 249.328125 242.074219 248.066406 235.152344 L 249.6875 234.972656 C 254.917969 234.398438 260.617188 233.773438 266.3125 232.636719 C 268.199219 243.960938 269.460938 252.773438 270.089844 259.0625 C 270.089844 261.578125 271.976562 262.839844 274.496094 262.839844 L 282.046875 262.207031 C 284.5625 262.207031 286.457031 259.691406 285.824219 257.800781 C 285.347656 251.59375 284.144531 243.578125 283.042969 236.222656 L 283.042969 236.21875 L 283.039062 236.195312 C 282.691406 233.863281 282.351562 231.601562 282.046875 229.484375 C 285.683594 228.496094 289.320312 227.675781 292.589844 226.941406 L 292.59375 226.941406 L 292.597656 226.9375 C 295.550781 226.273438 298.207031 225.675781 300.292969 225.078125 C 302.808594 242.070312 304.070312 252.132812 304.070312 257.167969 C 304.070312 259.683594 305.957031 260.941406 308.476562 260.941406 L 316.65625 260.941406 C 319.171875 260.941406 321.0625 259.054688 321.0625 256.535156 C 320.433594 248.355469 319.175781 236.398438 316.65625 220.042969 C 322.949219 218.15625 331.128906 216.894531 338.046875 220.667969 C 338.046875 220.667969 338.675781 220.667969 338.675781 221.296875 C 348.113281 226.332031 354.40625 238.289062 358.179688 259.050781 C 361.328125 274.78125 372.652344 284.21875 392.15625 288 C 402.785156 289.859375 413.636719 288.351562 423.480469 286.988281 C 436.949219 285.117188 448.535156 283.511719 455.078125 291.144531 C 460.113281 296.1875 463.890625 302.480469 463.890625 312.546875 C 463.890625 335.246094 443.554688 375.890625 433.203125 396.574219 L 432.429688 398.121094 Z M 295.890625 334.566406 C 284.566406 328.90625 256.25 316.949219 256.25 316.949219 C 236.113281 308.769531 215.980469 299.960938 195.84375 289.894531 C 179.484375 281.714844 166.269531 274.164062 155.574219 266.613281 C 139.839844 255.917969 129.144531 246.476562 123.484375 238.300781 C 123.273438 238.722656 123.0625 239.074219 122.851562 239.425781 C 122.433594 240.125 122.011719 240.820312 121.597656 242.074219 C 119.707031 245.222656 119.707031 248.371094 120.96875 252.144531 C 126.003906 268.503906 153.058594 288.011719 175.710938 299.335938 C 182.628906 302.65625 191.867188 306.953125 202.503906 311.90625 L 202.507812 311.90625 C 216.046875 318.203125 231.859375 325.5625 248.066406 333.3125 L 248.695312 333.9375 C 272.605469 344.636719 297.144531 355.964844 317.277344 365.398438 C 321.789062 367.507812 326.15625 369.613281 330.378906 371.648438 L 330.382812 371.648438 C 334.992188 373.871094 339.433594 376.011719 343.707031 377.984375 L 352.515625 382.390625 C 355.171875 383.6875 357.746094 384.953125 360.242188 386.179688 L 360.269531 386.195312 C 383.183594 397.460938 399.253906 405.359375 406.628906 402.527344 C 407.253906 402.527344 409.773438 401.269531 412.921875 394.976562 L 416.066406 388.683594 C 393.421875 379.238281 327.984375 349.664062 295.886719 334.566406 Z M 222.902344 410.070312 C 232.339844 414.476562 243.035156 410.699219 247.441406 401.261719 C 251.84375 391.824219 248.070312 381.125 238.632812 376.722656 L 86.363281 304.363281 C 76.925781 299.957031 66.226562 303.738281 61.820312 313.171875 C 57.414062 322.609375 61.195312 333.304688 70.628906 337.710938 Z M 122.226562 379.242188 L 86.988281 453.488281 L 115.160156 484.964844 L 157.460938 396.230469 Z M 122.226562 379.242188 "/>
</g>
</svg>
