<svg width="246" height="342" viewBox="0 0 41 57" fill="none" xmlns="http://www.w3.org/2000/svg">
<path d="M36.106 22.9503L35.488 22.9378L35.4817 15.2271C35.4755 6.82748 28.665 -0.00625943 20.294 4.30252e-06C11.923 0.00626804 5.11253 6.84 5.11877 15.2397L5.13125 22.9503H4.58192C1.70419 22.9566 -0.00622535 25.2992 1.7028e-05 28.1868V51.7698C1.7028e-05 54.6574 1.71667 57 4.59441 57L37.0423 56.9812C39.92 56.9812 41.0062 54.6386 41 51.751V28.1618C41 24.7418 39.327 22.9378 36.106 22.9503ZM10.7244 22.9503L10.7119 15.2397C10.7119 9.93429 15.0067 5.61858 20.294 5.61231C25.5813 5.61231 29.8823 9.92803 29.8823 15.2271L29.8948 22.9378L10.7244 22.9503Z" fill="#FFFFFF"/>
</svg>

