<svg width="256" height="256" viewBox="0 0 64 64" fill="none" xmlns="http://www.w3.org/2000/svg">
<path fill-rule="evenodd" clip-rule="evenodd" d="M10.9287 42.0751L0.702559 52.3708C0.314208 52.7618 0.315377 53.3933 0.705173 53.7828L10.2218 63.2936C10.6123 63.6838 11.2451 63.6838 11.6356 63.2936L63.2922 11.6698C63.683 11.2792 63.683 10.6457 63.2922 10.2551L53.7374 0.706431C53.3469 0.316207 52.7141 0.316207 52.3237 0.706431L10.9287 42.0751Z" fill="white"/>
<path fill-rule="evenodd" clip-rule="evenodd" d="M10.9287 21.925L0.702563 11.6292C0.314213 11.2382 0.315382 10.6067 0.705178 10.2172L10.2218 0.706445C10.6123 0.316216 11.2451 0.316213 11.6356 0.706441L63.2922 52.3302C63.683 52.7208 63.683 53.3543 63.2922 53.7449L53.7374 63.2936C53.3469 63.6838 52.7141 63.6838 52.3237 63.2936L10.9287 21.925Z" fill="white"/>
</svg>
