<svg width="68" height="68" viewBox="0 0 68 68" fill="none" xmlns="http://www.w3.org/2000/svg">
<path d="M34.0004 8.63599C21.8284 8.63599 10.7444 13.26 2.31243 20.808C1.56443 21.488 1.4964 22.644 2.1084 23.392L4.76041 26.452C5.44041 27.2 6.59641 27.268 7.34441 26.588C14.4164 20.196 23.7324 16.32 33.9324 16.32C44.1324 16.32 53.4484 20.196 60.5204 26.588C61.2684 27.268 62.4244 27.2 63.1044 26.452L65.7564 23.392C66.4364 22.644 66.3004 21.488 65.5524 20.808C57.2564 13.26 46.1724 8.63599 34.0004 8.63599Z" fill="#465BEA"/>
<path d="M34.0004 22.032C25.1604 22.032 17.0684 25.432 11.0164 30.94C10.2684 31.62 10.2004 32.708 10.8804 33.456L13.3964 36.38C14.0764 37.196 15.2324 37.196 16.0484 36.516C20.8084 32.164 27.1324 29.512 34.0684 29.512C41.0044 29.512 47.3284 32.164 52.0884 36.516C52.8364 37.196 54.0604 37.196 54.7404 36.38L57.2564 33.456C57.8684 32.708 57.8684 31.552 57.1204 30.94C50.9324 25.364 42.8404 22.032 34.0004 22.032Z" fill="#465BEA"/>
<path d="M34.0007 35.36C28.4247 35.36 23.3927 37.536 19.6527 41.14C18.9727 41.82 18.9047 42.908 19.5847 43.656L21.9647 46.444C22.6447 47.26 23.8687 47.26 24.6167 46.58C27.0647 44.2 30.3287 42.772 34.0007 42.772C37.6727 42.772 40.9367 44.2 43.3847 46.58C44.1327 47.328 45.3567 47.26 46.0367 46.444L48.4167 43.656C49.0287 42.908 49.0287 41.82 48.3487 41.14C44.6087 37.536 39.5767 35.36 34.0007 35.36Z" fill="#465BEA"/>
<path d="M34.0005 48.688C31.7565 48.688 29.7165 49.708 28.3565 51.34C27.7445 52.02 27.7445 53.04 28.3565 53.72L32.6405 58.684C33.3885 59.5 34.6804 59.5 35.4284 58.684L39.7125 53.72C40.3245 53.04 40.3245 52.02 39.7125 51.34C38.2845 49.708 36.2445 48.688 34.0005 48.688Z" fill="#465BEA"/>
</svg>
