<?xml version="1.0" encoding="utf-8"?>
<svg viewBox="211 182 40 49" width="40" height="49" xmlns="http://www.w3.org/2000/svg">
  <path d="M 246.225 201.73 L 245.622 201.719 L 245.616 195.091 C 245.61 187.87 238.966 181.995 230.799 182 C 222.632 182.006 215.988 187.88 215.994 195.101 L 216.006 201.73 L 215.47 201.73 C 212.662 201.735 210.994 203.749 211 206.231 L 211 226.504 C 211 228.987 212.675 231 215.482 231 L 247.139 230.985 C 249.946 230.985 251.006 228.97 251 226.488 L 251 206.209 C 251 203.269 249.368 201.719 246.225 201.73 Z M 221.463 201.73 L 221.45 195.101 C 221.45 190.541 225.64 186.83 230.799 186.825 C 235.957 186.825 240.153 190.535 240.153 195.091 L 240.165 201.719 L 221.463 201.73 Z" fill="#696969"/>
</svg>
