<svg width="300" height="300" viewBox="0 0 300 300" fill="none" xmlns="http://www.w3.org/2000/svg">
<path d="M182.019 181.218C123.429 239.83 67.543 258.769 54.9241 245.243C51.3182 241.636 51.3182 236.226 51.3182 231.717C51.3182 207.37 74.7548 160.481 124.331 114.489C129.74 109.98 129.74 101.864 125.233 96.454C120.725 91.0438 112.612 91.0438 107.204 95.5525C95.4866 106.373 85.5713 117.194 76.5569 128.016C51.3181 89.242 45.9096 61.2866 54.0213 52.2701C63.9367 42.351 100.894 50.4672 144.162 82.9291C157.683 92.8482 171.203 104.57 183.823 117.196C193.738 127.115 203.654 137.936 211.767 148.757C202.754 160.48 192.838 170.399 182.021 181.22L182.019 181.218ZM246.019 54.0753C255.033 63.0928 248.724 91.9498 225.287 128.918C217.174 118.999 209.062 109.982 200.048 100.063C191.034 91.0451 181.119 82.0274 171.204 73.9125C209.064 49.5654 237.006 45.0578 246.019 54.0753ZM264.048 36.04C243.316 15.3002 200.047 24.318 150.471 58.5842C100.894 24.317 56.7244 15.3005 35.9947 36.04C15.2627 56.7799 24.2771 99.1619 59.4313 149.66C38.6993 179.417 26.0793 208.272 26.0793 231.718C26.0793 247.949 32.3888 257.868 36.896 263.278C45.0091 271.394 54.9244 275 67.5433 275C105.403 275 158.583 241.635 200.049 200.157C209.063 191.14 218.077 181.22 225.288 171.301C249.625 209.176 255.034 237.128 246.02 246.144C238.809 253.357 218.076 250.653 193.739 238.028C187.43 235.322 180.218 237.127 176.613 243.438C173.008 249.75 175.712 256.965 182.022 260.571C200.951 270.49 218.979 274.999 232.501 274.999C245.121 274.999 255.036 271.391 263.148 263.277C283.88 242.537 274.866 199.252 240.612 149.657C272.163 105.473 286.583 59.4852 264.05 36.0397L264.048 36.04Z" fill="white"/>
<path d="M175.414 154.169C175.414 171.6 161.29 185.729 143.866 185.729C126.441 185.729 112.317 171.6 112.317 154.169C112.317 136.738 126.441 122.609 143.866 122.609C161.29 122.609 175.414 136.738 175.414 154.169Z" fill="white"/>
</svg>
