<?xml version="1.0" encoding="UTF-8"?>
<svg viewBox="0 0 500 450" xmlns="http://www.w3.org/2000/svg">
 <defs>
  <filter id="e">
   <feGaussianBlur stdDeviation="5.0987"/>
  </filter>
  <linearGradient id="d" x1="106.51" x2="9.3491" y1="43.296" y2="545.54" gradientUnits="userSpaceOnUse">
   <stop stop-color="#e3b200" offset="0"/>
   <stop stop-color="#a80" offset="1"/>
  </linearGradient>
  <linearGradient id="a" x1="44.947" x2="107.92" y1="175.41" y2="163.92" gradientUnits="userSpaceOnUse">
   <stop stop-color="#d7f4e3" offset="0"/>
   <stop stop-color="#d7f4e3" stop-opacity="0" offset="1"/>
  </linearGradient>
  <linearGradient id="c" x1="435.34" x2="-168.67" y1="-40.048" y2="479.08" gradientUnits="userSpaceOnUse">
   <stop stop-color="#a80" offset="0"/>
   <stop stop-color="#eeb534" stop-opacity="0" offset="1"/>
  </linearGradient>
  <linearGradient id="b" x1="272.67" x2="103.97" y1="30.418" y2="285.08" gradientUnits="userSpaceOnUse">
   <stop stop-color="#eeb534" offset="0"/>
   <stop stop-color="#eeb534" stop-opacity="0" offset="1"/>
  </linearGradient>
 </defs>
 <g transform="matrix(1.2075 0 0 1.2075 24.066 22.516)">
  <path d="m232.76 9.5848c-10.704-0.04767-21.267 1.266-31.312 4.25-1.3816 0.41042-2.7576 0.85123-4.125 1.3125-5.5774 0.98615-11.004 2.4709-16.25 4.7188-1.744 0.50543-3.5871 1.0665-5.4375 1.625l-4.6562-4.0312-5.1562 7.125c-14.017 4.5587-30.033 10.497-46.281 18.125-5.9968-1.9862-14.087-2.3136-17.656 1.0625-2.7012 2.5553-1.6887 5.1576-0.6875 8.2812-18.313 10.136-36.033 22.573-50.469 37.75-3.6816 4.1666-7.1436 8.4958-10.406 12.969l-1.625-0.21875 0.46875 1.8438c-3.1524 4.425-6.0814 8.971-8.8125 13.656-1.2362 0.62781-2.0502 1.2832-2.25 2-0.13378 0.47992-0.02366 0.98388 0.25 1.5312-8.4834 15.342-14.742 31.918-18.438 49.219-3.0779 14.408-3.8206 42.873-1.5312 58.438 1.9834 13.484 6.9895 33.381 12.094 48.062 9.6016 27.617 22.728 44.492 37.219 47.906 3.8563 0.90853 4.8662 1.1525 7.6562 0.5625-0.0821 0.0477-0.16767 0.0767-0.25 0.125 1.8192-0.30584 4.0223-0.92047 6.4062-1.7188 1.0975-0.32369 2.1583-0.68894 3.2812-1.1562l0.53125-0.21875c0.17627-0.0771 0.3495-0.13544 0.53125-0.21875 7.7155-3.0026 16.095-7.1526 19.625-9.4688 58.434-38.335 116.82-72.679 176.81-108.62 41.573-24.172 70.448-41.409 75.938-45.438 1.5573-1.1428 2.9338-2.2838 4.25-3.4062 3.7419-2.3316 7.4901-4.6368 11.25-7 8.3066-5.2209 6.6031-18.945 6.25-28.75-0.53163-14.763-4.4963-30.115-12.5-42.531-11.709-18.165-28.192-34.299-47.094-45.25-5.734-3.6812-11.73-6.8924-17.906-9.5312-18.397-7.8604-39.284-12.909-59.719-13z" filter="url(#e)" opacity=".5"/>
  <path d="m58.343 324.32c-14.49-3.4139-27.596-20.295-37.198-47.912-5.1042-14.681-10.112-34.581-12.095-48.065-2.2893-15.565-1.5405-44.027 1.5374-58.435 6.4277-30.089 20.492-58.002 40.813-81 36.872-38.766 95.04-59.688 130.33-69.916 16.472-7.0578 34.62-6.6356 54.173-6.6508 16.561-0.01285 29.316 1.9412 43.704 6.6958 11.691 3.863 29.673 12.121 34.634 15.905 1.7778 1.356 3.5143 2.4654 3.859 2.4654 1.411 0 10.52 7.5829 18.35 15.275 13.472 13.235 22.988 29.272 28.87 48.653 2.1129 6.9618 2.6188 10.731 2.6939 20.071 0.0851 10.586-0.1282 11.971-2.6847 17.43-3.7275 7.9594-8.3152 13.347-16.446 19.314-7.4864 5.4938-58.209 35.434-125.78 74.241-59.241 34.025-86.535 50.491-114.5 69.073-28.961 19.245-31.047 20.459-38.46 22.389-6.5991 1.7184-6.4978 1.7144-11.805 0.46395z" fill="#f1ca00"/>
  <path d="m235.91 17.344c-19.625 0.01522-37.033-0.25666-52.219 6.25a4.9916 4.9916 0 0 1 -0.59375 0.1875c-34.913 10.118-92.245 31.001-127.94 68.438l-0.125 0.125c-19.688 22.328-33.326 49.4-39.562 78.594-2.8316 13.255-3.608 42.144-1.4688 56.688 1.9103 12.988 6.8977 32.84 11.875 47.156 9.3464 26.883 22.055 41.962 33.625 44.688 5.338 1.2576 2.8099 1.2802 9.4062-0.4375 3.5655-0.92844 5.0632-1.3792 9.875-4.1875s12.587-7.9121 27.062-17.531c28.081-18.66 55.48-35.177 114.75-69.219 33.771-19.396 63.337-36.584 85.375-49.594s37.073-22.25 39.969-24.375c7.7011-5.6513 11.451-10.095 14.875-17.406 1.232-2.6308 1.6648-3.6693 1.9375-5.4375s0.32351-4.5864 0.28125-9.8438c-0.0737-9.1621-0.4647-11.95-2.5-18.656-5.6697-18.681-14.721-33.885-27.594-46.531-3.8105-3.7436-7.9792-7.4986-11.281-10.25-1.651-1.3757-3.0983-2.5137-4.0938-3.2188-0.38982-0.27611-0.62174-0.41496-0.8125-0.53125 0.20558 0.06987 0.47518 0.15625 1.3438 0.15625-1.066 0-1.2672-0.17804-1.5625-0.3125-0.0886-0.04034-0.38895-0.06215-0.46875-0.09375-0.34582-0.13694-0.5588-0.2575-0.78125-0.375-0.44491-0.235-0.85634-0.47654-1.2812-0.75-0.84981-0.54692-1.7982-1.219-2.7812-1.9688-1.5579-1.1883-7.4039-4.3886-13.844-7.3438s-13.78-5.9427-19.344-7.7812c-13.94-4.6065-25.957-6.45-42.125-6.4375z" fill="url(#d)"/>
  <path d="m39.362 101.66 14.268 1.9063 8.7698-2.8836 2.1583 9.2757 7.3868 1.3157s-1.2657 21.368 1.5678 16.157 12.834-7.8754 12.834-7.8754l1.3658 6.5942-15.229 10.624s-17.692 10.186-17.101 3.3048 3.3567-15.279 3.3567-15.279l-4.1993-1.3831-3.1702-10.726-9.0564 0.92722z" fill="#73cb2b"/>
  <path d="m25.01 250.46c9.596 7.1709 31.104-3.2068 33.764-11.255s-9.2582-6.7408-8.7535-12.505 11.398-8.0644 13.756-13.756-3.4656-12.589 0-17.507 11.253-3.9633 17.507-6.2525 9.5494 3.4742 20.008-7.503 5.9331-42.853 21.259-66.277 73.78-65.026 73.78-65.026-53.192 15.546-65.026 8.7535-0.97348-11.271-6.2525-15.006-17.811-5.6945-22.509-1.2505 1.8576 9.0246 0 16.257-6.1822 16.397-13.756 25.01-22.33 18.068-32.513 23.76-26.503 7.6385-27.511 11.255 11.345 8.9671 10.004 18.758-30.192 23.794-26.261 27.511 25.486-3.9527 31.263 7.503-14.585 28.067-17.507 41.267-10.846 29.094-1.2505 36.265z" fill="#549c1c"/>
  <path d="m67.654 228.06-4.033-13.818 1.5301-9.104-9.495-0.73699-2.413-7.1044s-20.933 4.4688-16.208 0.88294 5.853-13.874 5.853-13.874l-6.7247-0.35726-8.2099 16.656s-7.4055 19.024-0.69207 17.404 14.6-5.6192 14.6-5.6192l1.9996 3.9432 11.081 1.5189 0.44708 9.0928z" fill="#73cb2b"/>
  <path d="m69.365 221.22 6.8002-12.687 7.4689-5.4259-6.2605-7.1766 3.254-6.7607s-18.071-11.473-12.187-10.723 13.895-5.8024 13.895-5.8024l-4.5493-4.9652-17.526 6.1368s-18.61 8.3903-12.684 11.937 14.356 6.2157 14.356 6.2157l-1.3348 4.2149 6.8449 8.8457-6.0499 6.8028z" fill="#456f00"/>
  <path d="m60.892 216.88-12.844 6.4987-9.2302 0.1655 1.0169 9.4691-6.5413 3.675s8.2321 19.759 3.8405 15.772-14.712-3.2093-14.712-3.2093l0.88209 6.6762 17.879 5.0161s20.059 3.791 17.235-2.5114-8.2014-13.322-8.2014-13.322l3.5095-2.6889-0.53915-11.172 8.8566-2.1071z" fill="#456f00"/>
  <path d="m42.257 298.64c-0.74047 7.478 5.2878 16.664 12.505 18.758 3.9428 1.1435 7.7837-2.8094 11.255-5.002 3.249-2.0525 5.1492-6.1697 8.7535-7.503 2.7366-1.0123 6.3702 1.6833 8.7535 0 11.2-7.9098 6.7931-26.954 13.756-38.766 14.695-24.931 42.951-40.023 57.523-65.026 7.1021-12.186 21.042-27.939 13.756-40.016-12.639-20.948-52.762-25.671-72.529-11.255-6.4781 4.7246-2.4672 15.845-3.7515 23.76-0.40614 2.5028 0.68414 5.8641-1.2505 7.503-5.0888 4.3109-14.128-3.147-20.008 0-2.6502 1.4183-4.131 4.6262-5.002 7.503-1.0871 3.5905 1.4356 7.7886 0 11.255-2.2559 5.4462-10.592 6.9292-12.505 12.505-1.0906 3.1787 2.3412 6.8253 1.2505 10.004-1.1479 3.3455-6.9364 4.0117-7.503 7.503-0.59721 3.6801 5.2936 6.2872 5.002 10.004-0.28048 3.5748-3.4838 6.475-6.2525 8.7535-3.889 3.2005-12.749 1.3174-13.756 6.2525-1.3555 6.6488 11.296 8.682 13.756 15.006 1.0578 2.7194-1.4145 6.2014 0 8.7535 1.9063 3.4394 9.559 2.3454 10.004 6.2525 0.73376 6.4428-13.117 7.3027-13.756 13.756z" fill="#5a3c08"/>
  <path d="m60.128 271.52c-0.76741 1.9377-0.76894 4.9205 0.88424 6.1897 2.9434 2.2597 8.2921 1.153 11.053-1.3264 1.4629-1.3137 0.3231-4.0566 1.3264-5.7476 0.90549-1.5262 3.544-1.8165 3.9791-3.537 0.4229-1.6723-0.22899-4.0852-1.7685-4.8633-2.3307-1.178-4.9302 2.5759-7.516 2.2106-1.9026-0.26878-2.9429-3.0301-4.8633-3.0948-1.8455-0.0622-4.7969 0.80734-4.8633 2.6527-0.08827 2.4512 6.0629 1.5296 6.1897 3.9791 0.09753 1.8848-3.7263 1.7822-4.4212 3.537z" fill="#2b1100"/>
  <path d="m49.894 311.99c-0.46144 5.0543 9.3361 4.4452 14.381 5.002 5.4219 0.59844 11.722 1.1558 16.257-1.8758 1.7839-1.1926 1.704-4.0205 3.1263-5.6272 1.8789-2.1227 6.5282-2.1889 6.8778-5.002 0.40147-3.2307-3.0819-6.7642-6.2525-7.503-3.9982-0.93159-7.2919 3.929-11.255 5.002-3.6434 0.98656-8.8804-1.684-11.255 1.2505-1.3174 1.6284 1.8017 4.5196 0.62525 6.2525-0.85223 1.2553-2.8945 0.92609-4.3768 1.2505-2.6779 0.58612-7.879-1.4794-8.1283 1.2505z" fill="#2b1100"/>
  <path d="m70.739 237.04c-4.2876 0.65187-9.3401 0.37568-12.821-2.2106-1.0581-0.78607-2.1853-2.2864-1.7685-3.537s2.4077-1.0886 3.537-1.7685c1.0861-0.65391 1.8456-1.9949 3.0948-2.2106 2.1145-0.36509 4.4766 3.0607 6.1897 1.7685 1.4119-1.065 0.83447-3.7462 0-5.3054-0.75218-1.4055-3.6664-1.0896-3.9791-2.6527-0.20842-1.0421 0.88032-2.0691 1.7685-2.6527 1.377-0.90479 3.8569 0.42035 4.8633-0.88424 1.1737-1.5214-1.6481-4.2516-0.44212-5.7476 2.7077-3.3588 9.0966-3.9453 12.821-1.7685 5.1981 3.0379 8.7593 11.168 6.6318 16.801-2.6318 6.9673-12.532 9.0493-19.895 10.169z" fill="#2b1100"/>
  <path d="m80.707 185.75c-5.2392 3.0901-2.9334 12.375-7.0938 16.812-1.8003 1.9201-5.8037 1.2198-7.0625 3.5312-1.2731 2.3377-1.2018 6.2724 0.875 7.9375s5.3116-1.1582 7.9688-0.875c3.7013 0.39453 7.0697 4.7297 10.594 3.5312 2.0104-0.68368 2.381-3.5168 3.5625-5.2812 2.3662-3.5336 3.9283-7.7506 7.0625-10.625 2.7209-2.4954 7.8356-2.1369 9.7188-5.3125 1.052-1.774 1.3092-4.5938 0-6.1875-1.9076-2.322-5.8727-1.2993-8.8438-1.75-5.5615-0.84369-11.936-4.639-16.781-1.7812zm6.1875 36.25c-3.6964 1.0739-6.549 4.0497-9.75 6.1875-2.9848 1.9934-5.2619 5.6619-8.8125 6.1875-1.8443 0.27303-3.6308-2.555-5.3125-1.75-2.2687 1.0859-1.2936 4.9485-2.6562 7.0625-2.0352 3.1574-8.2417 4.2222-7.9688 7.9688 0.21417 2.9401 4.1496 5.1315 7.0938 5.2812 3.4291 0.1744 5.6743-6.6018 8.8438-5.2812 1.1194 0.4664 0.92366 2.3196 0.875 3.5312-0.18689 4.654-7.3112 9.5844-4.4375 13.25 2.1925 2.7966 7.478 0.77574 10.625-0.875 3.7099-1.946 5.885-6.0844 7.9688-9.7188 1.2541-2.1873 1.3203-4.9363 2.625-7.0938 2.0534-3.3955 5.1084-6.0935 7.9688-8.8438 3.3216-3.1938 9.6882-4.332 10.625-8.8438 0.53605-2.5816-1.3171-5.6803-3.5625-7.0625-4.0095-2.4682-9.6036-1.3136-14.125 0zm12.375 36.25c-8.2911-2.1749-5.0221 17.387-11.5 23-2.8205 2.4441-7.0494 2.4617-10.625 3.5312-4.3791 1.3099-8.8941 4.9165-13.25 3.5312-6.5761-2.0913-11.764-9.1675-13.25-15.906-0.9843-4.4636 6.6276-9.8877 3.5312-13.25-2.2298-2.4214-8.1772-1.1584-9.7188 1.75-2.7168 5.1257 6.7838 10.112 7.0625 15.906 0.1345 2.7967-3.2995 5.2437-2.6562 7.9688 0.76492 3.2402 4.9525 4.4872 7.0625 7.0625 3.3709 4.1141 4.4696 10.255 8.8438 13.281 3.2356 2.2382 7.8517 4.1289 11.5 2.6562 6.5212-2.6323 7.4703-11.924 11.5-17.688 3.3808-4.8353 8.6205-8.6072 10.625-14.156 2.0055-5.5519 6.5849-16.19 0.875-17.688zm-12.375 0.90625c-4.5531-1.519-7.0612 6.5036-10.625 9.7188-2.6296 2.3723-8.1805 3.5293-7.9375 7.0625 0.21841 3.1762 4.9966 6.5322 7.9375 5.3125 1.3926-0.57757-0.14613-3.3283 0.875-4.4375 2.9122-3.1633 10.145 0.12575 12.406-3.5312 2.5196-4.0748 1.8884-12.609-2.6562-14.125z" fill="#a05e00"/>
  <path d="m79.139 201.23c-1.9058-0.24499-4.6536 1.1848-4.8633 3.0948-0.20468 1.8646 4.1913 2.1154 3.9791 3.9791-0.15732 1.3814-3.7012 0.83001-3.537 2.2106 0.2753 2.3138 4.4277 2.9668 6.6318 2.2106 2.0104-0.68978 3.7072-3.1868 3.537-5.3054-0.22553-2.8065-2.955-5.8307-5.7476-6.1897z" fill="#deaa87"/>
  <path d="m79.16 289.65c0.04088-2.5352 1.9605-5.5785 4.4212-6.1897 2.2387-0.55605 5.2747 0.97728 6.1897 3.0948 0.61027 1.4124-0.60416 3.0626-1.3264 4.4212-0.98316 1.8495-2.4834 3.3969-3.9791 4.8633-1.8736 1.837-4.1564 6.5218-6.1897 4.8633-2.0429-1.6664 3.7008-4.4427 3.537-7.0739-0.09905-1.591-2.6784-2.3852-2.6527-3.9791z" fill="#deaa87"/>
  <g transform="matrix(.49227 .87044 -.87044 .49227 214.5 -56.932)">
   <path d="m90.71 180.68-30.948 2.9962s-8.1403-8.2673-7.9581-13.483c0.12699-3.6356 6.1897-8.9886 6.1897-8.9886l16.801-3.7452h21.222l-7.9581 27.715z" fill="#f8010a"/>
   <path d="m82.062 160.41c-8.437 0.74291-18.227 0.30389-25.125 5.8125-2.9935 3.1656-2.0035 7.7802 0.84375 10.594 1.4528 3.1864 4.9623 4.9632 8.1515 3.2463l21.036-2.0588 5.0312-17.562c-3.3123-0.0624-6.6249-0.0897-9.9375-0.0312z" fill="url(#a)" opacity=".3248"/>
  </g>
  <g transform="matrix(.89374 -.44858 .44858 .89374 -50.922 8.78)">
   <path d="m90.71 180.68-30.948 2.9962s-8.1403-8.2673-7.9581-13.483c0.12699-3.6356 6.1897-8.9886 6.1897-8.9886l16.801-3.7452h21.222l-7.9581 27.715z" fill="#f8010a"/>
   <path d="m82.062 160.41c-8.437 0.74291-18.227 0.30389-25.125 5.8125-2.9935 3.1656-2.0035 7.7802 0.84375 10.594 1.4528 3.1864 4.9623 4.9632 8.1515 3.2463l21.036-2.0588 5.0312-17.562c-3.3123-0.0624-6.6249-0.0897-9.9375-0.0312z" fill="url(#a)" opacity=".3248"/>
  </g>
  <g transform="matrix(.18618 .74563 -.74563 .18618 168.73 167.63)">
   <path d="m-83.37 152.71 8.2065-4.5003s-6.7213-5.2433-6.0887-8.7359c0.55401-3.0588 7.35-2.2032 7.677-5.2945 0.67631-6.3939-14.479-7.7222-13.236-14.03 1.1986-6.0832 13.967-2.2372 16.942-7.677 2.3532-4.3029 0.0811-10.176-2.1178-14.56-1.5666-3.1233-7.3837-3.9182-7.4123-7.4123-0.0312-3.8066 7.9418-8.2065 7.9418-8.2065l-14.825-1.3236s-5.615 5.0942-5.5592 8.4712c0.0175 5.7369 15.704 13.567 15.089 16.413-1.7424 6.2509-18.14 1.6923-20.384 8.7359-2.1038 6.6044 12.967 11.135 10.854 17.737-1.1696 3.6525-10.576 0.66514-10.589 4.5003-0.0102 2.8851 6.0522 1.2611 7.9418 3.4414 2.7404 6.4658 1.1111 7.2526 5.5592 12.442z" fill="#ffe680"/>
   <path d="m-85.465 151.71 8.2065-4.5003s-6.7213-5.2433-6.0887-8.7359c0.55401-3.0588 7.35-2.2032 7.677-5.2945 0.67631-6.3939-14.479-7.7222-13.236-14.03 1.1986-6.0832 13.967-2.2372 16.942-7.677 2.3532-4.3029 0.0811-10.176-2.1178-14.56-1.5666-3.1233-7.3837-3.9182-7.4123-7.4123-0.0312-3.8066 7.9418-8.2065 7.9418-8.2065l-14.825-1.3236s-5.615 5.0942-5.5592 8.4712c0.0175 5.7369 15.704 13.567 15.089 16.413-1.7424 6.2509-18.14 1.6923-20.384 8.7359-2.1037 6.6044 12.967 11.135 10.854 17.737-1.1696 3.6525-10.576 0.66514-10.589 4.5003-0.0102 2.8851 6.0522 1.2611 7.9418 3.4414 2.7404 6.4658 1.1111 7.2526 5.5592 12.442z" fill="#febe14"/>
   <path d="m-87.219 82.281c-3.6542 1.1692-6.6435 7.3583-2.4062 9.9062 3.8541 4.6188 11.564 6.5731 12.719 13-3.1444 8.2381-14.166 3.5359-19.75 7.9688-2.773 4.797 4.8588 6.6146 6.75 9.9375 3.5487 2.7659 5.5948 9.5274 0.40625 11.625-1.7645 1.2574-5.595 0.37614-6.3438 1 4.3031-0.18819 8.0116 2.6017 8.1875 7 0.27034 3.2117 2.26 8.82 6.1562 4.875 1.9967-2.2551-3.3506-3.6452-3.375-6.0938-1.8074-3.7922 1.6275-7.8223 5.5625-7.5312 3.3131-1.0426 0.28142-4.0991-1.8682-4.5586-4.2845-2.2831-12.374-6.6437-8.7568-12.566 3.4929-6.385 14.392-0.79702 16.75-8.0312 1.0301-6.6678-2.9044-12.927-8.8438-15.656-3.0645-3.3501-0.39463-8.2324 2.6875-10.5-2.6134-0.25987-5.2465-0.4863-7.875-0.375z" fill="#ffd42a"/>
  </g>
  <path d="m84.556 138.98-6.8002-12.687-7.4689-5.4259 6.2605-7.1766-3.254-6.7607s18.071-11.473 12.187-10.723-13.895-5.8024-13.895-5.8024l4.5493-4.9652 17.526 6.1368s18.61 8.3903 12.684 11.937-14.356 6.2157-14.356 6.2157l1.3348 4.2149-6.8449 8.8457 6.0499 6.8028z" fill="#456f00"/>
  <path d="m60.128 96.869 12.687-6.8002 5.4259-7.4689 7.1766 6.2605 6.7607-3.254s11.473 18.071 10.723 12.187 5.8024-13.895 5.8024-13.895l4.9652 4.5493-6.1368 17.526s-8.3903 18.61-11.937 12.684-6.2157-14.356-6.2157-14.356l-4.2149 1.3348-8.8457-6.8449-6.8028 6.0499z" fill="#73cb2b"/>
  <path d="m114.69 102.84-6.8002-12.687-7.4689-5.4259 6.2605-7.1766-3.254-6.7607s18.071-11.473 12.187-10.723-13.895-5.8024-13.895-5.8024l4.5493-4.9652 17.526 6.1368s18.61 8.3903 12.684 11.937-14.356 6.2157-14.356 6.2157l1.3348 4.2149-6.8449 8.8457 6.0499 6.8028z" fill="#456f00"/>
  <path d="m90.71 180.68-30.948 2.9962s-8.1403-8.2673-7.9581-13.483c0.12699-3.6356 6.1897-8.9886 6.1897-8.9886l16.801-3.7452h21.222l-7.9581 27.715z" fill="#f8010a"/>
  <path d="m153.54 30.839 12.687-6.8002 5.4259-7.4689 7.1766 6.2605 6.7607-3.254s11.473 18.071 10.723 12.187 5.8024-13.895 5.8024-13.895l4.9652 4.5493-6.1368 17.526s-8.3903 18.61-11.937 12.684-6.2157-14.356-6.2157-14.356l-4.2149 1.3348-8.8457-6.8449-6.8028 6.0499z" fill="#4e8a11"/>
  <g transform="matrix(.54713 .5397 -.5397 .54713 208.94 84.321)">
   <path d="m-83.37 152.71 8.2065-4.5003s-6.7213-5.2433-6.0887-8.7359c0.55401-3.0588 7.35-2.2032 7.677-5.2945 0.67631-6.3939-14.479-7.7222-13.236-14.03 1.1986-6.0832 13.967-2.2372 16.942-7.677 2.3532-4.3029 0.0811-10.176-2.1178-14.56-1.5666-3.1233-7.3837-3.9182-7.4123-7.4123-0.0312-3.8066 7.9418-8.2065 7.9418-8.2065l-14.825-1.3236s-5.615 5.0942-5.5592 8.4712c0.0175 5.7369 15.704 13.567 15.089 16.413-1.7424 6.2509-18.14 1.6923-20.384 8.7359-2.1038 6.6044 12.967 11.135 10.854 17.737-1.1696 3.6525-10.576 0.66514-10.589 4.5003-0.0102 2.8851 6.0522 1.2611 7.9418 3.4414 2.7404 6.4658 1.1111 7.2526 5.5592 12.442z" fill="#ffe680"/>
   <path d="m-85.465 151.71 8.2065-4.5003s-6.7213-5.2433-6.0887-8.7359c0.55401-3.0588 7.35-2.2032 7.677-5.2945 0.67631-6.3939-14.479-7.7222-13.236-14.03 1.1986-6.0832 13.967-2.2372 16.942-7.677 2.3532-4.3029 0.0811-10.176-2.1178-14.56-1.5666-3.1233-7.3837-3.9182-7.4123-7.4123-0.0312-3.8066 7.9418-8.2065 7.9418-8.2065l-14.825-1.3236s-5.615 5.0942-5.5592 8.4712c0.0175 5.7369 15.704 13.567 15.089 16.413-1.7424 6.2509-18.14 1.6923-20.384 8.7359-2.1037 6.6044 12.967 11.135 10.854 17.737-1.1696 3.6525-10.576 0.66514-10.589 4.5003-0.0102 2.8851 6.0522 1.2611 7.9418 3.4414 2.7404 6.4658 1.1111 7.2526 5.5592 12.442z" fill="#febe14"/>
   <path d="m-87.219 82.281c-3.6542 1.1692-6.6435 7.3583-2.4062 9.9062 3.8541 4.6188 11.564 6.5731 12.719 13-3.1444 8.2381-14.166 3.5359-19.75 7.9688-2.773 4.797 4.8588 6.6146 6.75 9.9375 3.5487 2.7659 5.5948 9.5274 0.40625 11.625-1.7645 1.2574-5.595 0.37614-6.3438 1 4.3031-0.18819 8.0116 2.6017 8.1875 7 0.27034 3.2117 2.26 8.82 6.1562 4.875 1.9967-2.2551-3.3506-3.6452-3.375-6.0938-1.8074-3.7922 1.6275-7.8223 5.5625-7.5312 3.3131-1.0426 0.28142-4.0991-1.8682-4.5586-4.2845-2.2831-12.374-6.6437-8.7568-12.566 3.4929-6.385 14.392-0.79702 16.75-8.0312 1.0301-6.6678-2.9044-12.927-8.8438-15.656-3.0645-3.3501-0.39463-8.2324 2.6875-10.5-2.6134-0.25987-5.2465-0.4863-7.875-0.375z" fill="#ffd42a"/>
  </g>
  <g transform="matrix(.27412 .71797 -.71797 .27412 225.22 93.785)">
   <path d="m-83.37 152.71 8.2065-4.5003s-6.7213-5.2433-6.0887-8.7359c0.55401-3.0588 7.35-2.2032 7.677-5.2945 0.67631-6.3939-14.479-7.7222-13.236-14.03 1.1986-6.0832 13.967-2.2372 16.942-7.677 2.3532-4.3029 0.0811-10.176-2.1178-14.56-1.5666-3.1233-7.3837-3.9182-7.4123-7.4123-0.0312-3.8066 7.9418-8.2065 7.9418-8.2065l-14.825-1.3236s-5.615 5.0942-5.5592 8.4712c0.0175 5.7369 15.704 13.567 15.089 16.413-1.7424 6.2509-18.14 1.6923-20.384 8.7359-2.1038 6.6044 12.967 11.135 10.854 17.737-1.1696 3.6525-10.576 0.66514-10.589 4.5003-0.0102 2.8851 6.0522 1.2611 7.9418 3.4414 2.7404 6.4658 1.1111 7.2526 5.5592 12.442z" fill="#ffe680"/>
   <path d="m-85.465 151.71 8.2065-4.5003s-6.7213-5.2433-6.0887-8.7359c0.55401-3.0588 7.35-2.2032 7.677-5.2945 0.67631-6.3939-14.479-7.7222-13.236-14.03 1.1986-6.0832 13.967-2.2372 16.942-7.677 2.3532-4.3029 0.0811-10.176-2.1178-14.56-1.5666-3.1233-7.3837-3.9182-7.4123-7.4123-0.0312-3.8066 7.9418-8.2065 7.9418-8.2065l-14.825-1.3236s-5.615 5.0942-5.5592 8.4712c0.0175 5.7369 15.704 13.567 15.089 16.413-1.7424 6.2509-18.14 1.6923-20.384 8.7359-2.1037 6.6044 12.967 11.135 10.854 17.737-1.1696 3.6525-10.576 0.66514-10.589 4.5003-0.0102 2.8851 6.0522 1.2611 7.9418 3.4414 2.7404 6.4658 1.1111 7.2526 5.5592 12.442z" fill="#febe14"/>
   <path d="m-87.219 82.281c-3.6542 1.1692-6.6435 7.3583-2.4062 9.9062 3.8541 4.6188 11.564 6.5731 12.719 13-3.1444 8.2381-14.166 3.5359-19.75 7.9688-2.773 4.797 4.8588 6.6146 6.75 9.9375 3.5487 2.7659 5.5948 9.5274 0.40625 11.625-1.7645 1.2574-5.595 0.37614-6.3438 1 4.3031-0.18819 8.0116 2.6017 8.1875 7 0.27034 3.2117 2.26 8.82 6.1562 4.875 1.9967-2.2551-3.3506-3.6452-3.375-6.0938-1.8074-3.7922 1.6275-7.8223 5.5625-7.5312 3.3131-1.0426 0.28142-4.0991-1.8682-4.5586-4.2845-2.2831-12.374-6.6437-8.7568-12.566 3.4929-6.385 14.392-0.79702 16.75-8.0312 1.0301-6.6678-2.9044-12.927-8.8438-15.656-3.0645-3.3501-0.39463-8.2324 2.6875-10.5-2.6134-0.25987-5.2465-0.4863-7.875-0.375z" fill="#ffd42a"/>
  </g>
  <path d="m33.03 297.95s14.649 17.408 25.01 19.383c6.6087 1.2599 15.23-0.33424 19.383-5.6273 24.337-31.018-1.2618-79.247 5.002-118.17 6.0584-37.649 10.138-78.297 31.263-110.04 20.884-31.386 52.273-59.794 88.411-70.529 29.223-8.6809 63.002-3.2243 91.036 8.7535 24.297 10.381 45.709 29.563 60.024 51.772 8.0037 12.417 11.973 27.754 12.505 42.517 0.35308 9.8048 2.0541 23.541-6.2525 28.762-93.11 58.522-180.57 106.93-268.23 164.44-10.151 6.6593-27.236 16.634-39.703 10.629-8.1984-3.9486-18.445-21.884-18.445-21.884z" fill="#f1ca00"/>
  <path d="m308.28 48.294c-0.23009-0.01262-0.46583 0.0101-0.71875 0.0625-4.6845 0.0746-5.8083 5.3571-4.5938 8.9062-0.6657 2.3469-5.4994 3.9722-2.0312 6.3125 0.80271-0.25701-0.0528-4.8721 2.875-4.0938 2.0804 0.34504 5.1413 4.9939 5.3438 0.59375-0.21161-2.9114-6.0151-0.23256-5.7188-4.125-0.56778-3.2214 3.8609-7.1968 6.1562-3.5938 1.2035 3.3204 2.9303 1.189 1.8125-0.96875-0.45916-1.4338-1.5144-3.0054-3.125-3.0938zm-97.625 2.9062c-0.20243 0.01407-0.40043 0.03594-0.59375 0.0625-4.361 0.35997-5.4317 5.3274-4.125 8.7188-0.97798 2.1456-5.6854 4.9061-1.6562 6.5625-1.2051-2.9672 2.1222-5.7482 4.375-3.25 1.4283 2.7966 4.1819 1.4637 3.2812-1.1562-1.7336-1.2032-6.0545-0.22552-5.625-3.7812-0.26429-3.7431 5.0179-6.6736 6.7812-2.375 2.5219 3.2643 1.4815-4.1846-0.6875-4.4375-0.514-0.34042-1.1427-0.38597-1.75-0.34375zm-67.188 10.625c-0.20243 0.01407-0.43168 0.03594-0.625 0.0625-4.361 0.35997-5.4317 5.3274-4.125 8.7188-0.97798 2.1456-5.6854 4.9061-1.6562 6.5625-1.2051-2.9672 2.1222-5.7482 4.375-3.25 1.4283 2.7966 4.1819 1.4637 3.2812-1.1562-1.7336-1.2032-6.0545-0.22552-5.625-3.7812-0.26429-3.7431 5.0179-6.6736 6.7812-2.375 2.5219 3.2643 1.4815-4.1846-0.6875-4.4375-0.514-0.34042-1.1114-0.38597-1.7188-0.34375zm189.22 21.219c-0.20243 0.01407-0.40043 0.03594-0.59375 0.0625-4.361 0.35997-5.4317 5.3274-4.125 8.7188-0.97798 2.1456-5.6854 4.9061-1.6562 6.5625-1.2051-2.9672 2.1222-5.7482 4.375-3.25 1.4283 2.7966 4.1819 1.4637 3.2812-1.1562-1.7336-1.2032-6.0545-0.22552-5.625-3.7812-0.26429-3.7431 5.0179-6.6736 6.7812-2.375 2.5219 3.2643 1.4815-4.1846-0.6875-4.4375-0.514-0.34042-1.1427-0.38597-1.75-0.34375zm-91.094 4.4062c-0.20243 0.01407-0.40043 0.06719-0.59375 0.09375-4.361 0.35997-5.4317 5.3274-4.125 8.7188-0.97798 2.1456-5.6854 4.9061-1.6562 6.5625-1.2051-2.9672 2.1222-5.7482 4.375-3.25 1.4283 2.7966 4.1819 1.4637 3.2812-1.1562-1.7336-1.2032-6.0545-0.22552-5.625-3.7812-0.26429-3.7431 5.0179-6.6736 6.7812-2.375 2.5219 3.2643 1.4815-4.1846-0.6875-4.4375-0.514-0.34042-1.1427-0.41722-1.75-0.375zm26.125 9.875c-1.4552 0.02341-3.0171 0.61099-4.125 1.4062-1.5308 1.0988-2.2151 3.2539-2.4375 5.125-0.12484 1.0502 0.88165 2.0604 0.65625 3.0938-0.40562 1.8596-3.5083 2.6952-3.375 4.5938 0.10333 1.4713 1.6621 3.5422 3.0938 3.1875 1.3906-0.34456-0.0744-3.5084 1.2188-4.125 1.8851-0.89877 3.9181 3.3184 5.7812 2.375 1.3436-0.68027 1.7916-3.0405 1.0938-4.375-0.86562-1.6552-4.565-0.26223-5.25-2-0.63914-1.6214 0.63031-4.2629 2.3125-4.7188 1.8807-0.50963 3.227 4.3376 4.8438 3.25 2.0208-1.3594 0.5348-5.7275-1.4375-7.1562-0.66267-0.48006-1.5019-0.67029-2.375-0.65625zm-67.156 15.562c-5.8256-5e-3 -6.7534 8.4292-3.125 11.219 0.49619 3.195 6.9095 2.681 3.875-0.5625-3.6843 0.0679-7.1315-3.5223-3.9062-6.6875 2.1963-2.785 5.7882 0.14236 6.8438 1.6562 1.0766-2.334-1.0633-5.8277-3.6875-5.625zm-42.969 1.0938c-0.20243 0.0141-0.40043 0.0359-0.59375 0.0625-4.361 0.35997-5.4317 5.3274-4.125 8.7188-0.97798 2.1456-5.6854 4.9061-1.6562 6.5625-1.2051-2.9672 2.1222-5.7482 4.375-3.25 1.4283 2.7966 4.1819 1.4637 3.2812-1.1562-1.7336-1.2032-6.0545-0.22552-5.625-3.7812-0.26429-3.7431 5.0179-6.6736 6.7812-2.375 2.5219 3.2643 1.4815-4.1846-0.6875-4.4375-0.514-0.34042-1.1427-0.38597-1.75-0.34375zm160.72 2.5938c-1.4552 0.0234-3.0171 0.64224-4.125 1.4375-1.5308 1.0988-2.2151 3.2226-2.4375 5.0938-0.12484 1.0502 0.88165 2.0917 0.65625 3.125-0.40562 1.8596-3.5083 2.6952-3.375 4.5938 0.10333 1.4714 1.6621 3.511 3.0938 3.1562 1.3906-0.34456-0.0744-3.5084 1.2188-4.125 1.8851-0.89877 3.9181 3.3496 5.7812 2.4062 1.3436-0.68027 1.7916-3.0718 1.0938-4.4062-0.86562-1.6552-4.565-0.26223-5.25-2-0.63914-1.6214 0.63032-4.2317 2.3125-4.6875 1.8807-0.50963 3.227 4.3376 4.8438 3.25 2.0208-1.3594 0.5348-5.7275-1.4375-7.1562-0.66267-0.48006-1.5019-0.70155-2.375-0.6875zm-124.06 6.7812c-2.13 0.616-1.954 6.0357 0.125 4.375 0.20853-1.3398-0.058-3.4542-0.125-4.375zm68.25 10.438c-1.4552 0.0234-3.0171 0.61099-4.125 1.4062-1.5308 1.0988-2.1838 3.2539-2.4062 5.125-0.12484 1.0502 0.8504 2.0604 0.625 3.0938-0.40562 1.8596-3.5083 2.6952-3.375 4.5938 0.10333 1.4714 1.6621 3.5422 3.0938 3.1875 1.3906-0.34456-0.0744-3.5084 1.2188-4.125 1.8851-0.89877 3.9181 3.3184 5.7812 2.375 1.3436-0.68027 1.7916-3.0405 1.0938-4.375-0.86562-1.6552-4.565-0.26223-5.25-2-0.63914-1.6214 0.63031-4.2629 2.3125-4.7188 1.8807-0.50962 3.2582 4.3376 4.875 3.25 2.0208-1.3594 0.50355-5.7275-1.4688-7.1562-0.66267-0.48006-1.5019-0.6703-2.375-0.65625zm-147.34 5.8438c-0.20243 0.0141-0.40043 0.0359-0.59375 0.0625-4.361 0.35997-5.4317 5.3274-4.125 8.7188-0.97798 2.1456-5.6854 4.9061-1.6562 6.5625-1.2051-2.9672 2.1222-5.7482 4.375-3.25 1.4283 2.7966 4.1819 1.4637 3.2812-1.1562-1.7336-1.2032-6.0545-0.22552-5.625-3.7812-0.26429-3.7431 5.0179-6.6736 6.7812-2.375 2.5219 3.2643 1.4815-4.1846-0.6875-4.4375-0.514-0.34042-1.1427-0.38597-1.75-0.34375zm226.38 0c-0.20243 0.0141-0.40043 0.0359-0.59375 0.0625-4.361 0.35997-5.4317 5.3274-4.125 8.7188-0.97798 2.1456-5.6854 4.9061-1.6562 6.5625-1.2051-2.9672 2.1222-5.7482 4.375-3.25 1.4283 2.7966 4.1819 1.4637 3.2812-1.1562-1.7336-1.2032-6.0545-0.22552-5.625-3.7812-0.26429-3.7431 5.0179-6.6736 6.7812-2.375 2.5219 3.2643 1.4815-4.1846-0.6875-4.4375-0.514-0.34042-1.1427-0.38597-1.75-0.34375zm-138.91 10.375c-0.2095-6e-3 -0.41909 9e-3 -0.625 0.0312-4.5061 0.088-5.9989 5.1874-4.5312 8.75-0.51595 2.4601-5.5145 3.9122-2.2188 6.4062 1.3675 0.41385-0.28793-4.224 2.3438-4.0312 2.4833-0.39803 5.8756 5.4167 5.9688 0.375-0.74505-2.4277-6.8883-0.37702-5.6562-4.8125 8e-3 -3.6412 5.0759-5.9598 6.7188-1.9375 2.3958 3.3055 1.5724-3.714-0.28125-4.1562-0.46879-0.43848-1.0902-0.60779-1.7188-0.625zm90.25 5.5312c-0.20243 0.0141-0.40043 0.0359-0.59375 0.0625-4.361 0.35997-5.4317 5.3274-4.125 8.7188-0.97798 2.1456-5.6854 4.9061-1.6562 6.5625-1.2051-2.9672 2.1222-5.7482 4.375-3.25 1.4283 2.7966 4.1819 1.4637 3.2812-1.1562-1.7336-1.2032-6.0545-0.22552-5.625-3.7812-0.26429-3.7431 5.0179-6.6736 6.7812-2.375 2.5219 3.2643 1.4815-4.1846-0.6875-4.4375-0.514-0.34042-1.1427-0.38597-1.75-0.34375zm-188.16 23.688c-4.2813 2.1251 1.1684 4.3352 1.6875 6.8438-1.5663 3.5392 0.15915 8.5044 4.5938 8.5625 0.97716 0.11825 1.9777-0.13487 2.5938-0.9375 1.584-0.78806 2.2382-6.9921-0.0312-3.8438-1.4027 3.536-6.0385 2.2744-6.5625-1.125-1.4772-3.6232 2.6186-4.7652 5.25-4.75 1.3102-2.6024-1.5843-4.4757-3.125-1.4375-2.3411 2.49-5.5604-0.3275-4.4062-3.3125zm105.56 2.4062c-1.4552 0.0234-3.0483 0.61099-4.1562 1.4062-1.5308 1.0988-2.1838 3.2539-2.4062 5.125-0.12484 1.0502 0.88165 2.0604 0.65625 3.0938-0.40562 1.8596-3.5396 2.6952-3.4062 4.5938 0.10333 1.4713 1.6621 3.511 3.0938 3.1562 1.3906-0.34456-0.0744-3.5084 1.2188-4.125 1.8851-0.89877 3.9493 3.3496 5.8125 2.4062 1.3436-0.68027 1.7604-3.0405 1.0625-4.375-0.86561-1.6552-4.5338-0.26223-5.2188-2-0.63914-1.6214 0.59907-4.2629 2.2812-4.7188 1.8807-0.50963 3.2582 4.3376 4.875 3.25 2.0208-1.3594 0.50355-5.7275-1.4688-7.1562-0.66267-0.48006-1.4707-0.6703-2.3438-0.65625zm-64.25 1.9375c-0.87309-0.014-1.7123 0.20744-2.375 0.6875-1.9723 1.4288-3.4583 5.7969-1.4375 7.1562 1.6168 1.0876 2.963-3.7596 4.8438-3.25 1.6822 0.45582 2.9516 3.0661 2.3125 4.6875-0.685 1.7378-4.3844 0.34478-5.25 2-0.69788 1.3345-0.2498 3.726 1.0938 4.4062 1.8632 0.94336 3.8962-3.305 5.7812-2.4062 1.2932 0.61655-0.1718 3.7804 1.2188 4.125 1.4317 0.35475 2.9904-1.6849 3.0938-3.1562 0.13334-1.8986-2.9694-2.7342-3.375-4.5938-0.2254-1.0333 0.78109-2.0748 0.65625-3.125-0.22242-1.8711-0.90671-3.995-2.4375-5.0938-1.1079-0.79526-2.6698-1.4141-4.125-1.4375zm124.62 3.3438c-1.4552 0.0234-3.0171 0.61099-4.125 1.4062-1.5308 1.0988-2.2151 3.2539-2.4375 5.125-0.12484 1.0502 0.88165 2.0604 0.65625 3.0938-0.40562 1.8596-3.5083 2.6952-3.375 4.5938 0.10333 1.4713 1.6621 3.511 3.0938 3.1562 1.3906-0.34456-0.0744-3.5084 1.2188-4.125 1.8851-0.89877 3.9181 3.3496 5.7812 2.4062 1.3436-0.68027 1.7916-3.0405 1.0938-4.375-0.86562-1.6552-4.565-0.26223-5.25-2-0.63914-1.6214 0.63031-4.2629 2.3125-4.7188 1.8807-0.50962 3.227 4.3376 4.8438 3.25 2.0208-1.3594 0.5348-5.7275-1.4375-7.1562-0.66267-0.48006-1.5019-0.6703-2.375-0.65625zm-60 28.75c-0.20243 0.0141-0.40043 0.0359-0.59375 0.0625-4.361 0.35997-5.4317 5.3274-4.125 8.7188-0.97798 2.1456-5.6854 4.9061-1.6562 6.5625-1.2051-2.9672 2.1222-5.7482 4.375-3.25 1.4283 2.7966 4.1819 1.4637 3.2812-1.1562-1.7336-1.2032-6.0545-0.22552-5.625-3.7812-0.26429-3.7431 5.0179-6.6736 6.7812-2.375 2.5219 3.2643 1.4815-4.1846-0.6875-4.4375-0.514-0.34042-1.1427-0.38597-1.75-0.34375zm-109.66 2.6562c-0.20243 0.0141-0.40043 0.0359-0.59375 0.0625-4.361 0.35997-5.4317 5.3274-4.125 8.7188-0.97798 2.1456-5.6854 4.9061-1.6562 6.5625-1.2051-2.9672 2.1222-5.7482 4.375-3.25 1.4283 2.7966 4.1819 1.4637 3.2812-1.1562-1.7336-1.2032-6.0545-0.22552-5.625-3.7812-0.26429-3.7431 5.0179-6.6736 6.7812-2.375 2.5219 3.2643 1.4815-4.1846-0.6875-4.4375-0.514-0.34042-1.1427-0.38597-1.75-0.34375zm56.469 20.125c-1.4552 0.0234-3.0171 0.61099-4.125 1.4062-1.5308 1.0988-2.2151 3.2539-2.4375 5.125-0.12484 1.0502 0.88165 2.0604 0.65625 3.0938-0.40562 1.8595-3.5083 2.6952-3.375 4.5938 0.10333 1.4713 1.6621 3.5422 3.0938 3.1875 1.3906-0.34456-0.0744-3.5084 1.2188-4.125 1.8851-0.89877 3.9181 3.3184 5.7812 2.375 1.3435-0.68027 1.7916-3.0405 1.0938-4.375-0.86561-1.6552-4.565-0.26224-5.25-2-0.63913-1.6214 0.63032-4.2317 2.3125-4.6875 1.8807-0.50963 3.227 4.3064 4.8438 3.2188 2.0208-1.3594 0.5348-5.7275-1.4375-7.1562-0.66267-0.48006-1.5019-0.6703-2.375-0.65625zm-49.375 23.219c-0.20243 0.0141-0.40043 0.0359-0.59375 0.0625-4.361 0.35997-5.4317 5.3274-4.125 8.7188-0.97798 2.1456-5.6854 4.9061-1.6562 6.5625-1.2051-2.9672 2.1222-5.7482 4.375-3.25 1.4283 2.7966 4.1819 1.4637 3.2812-1.1562-1.7336-1.2032-6.0545-0.22552-5.625-3.7812-0.26429-3.7431 5.0179-6.6736 6.7812-2.375 2.5219 3.2643 1.4815-4.1846-0.6875-4.4375-0.514-0.34042-1.1427-0.38597-1.75-0.34375z" fill="url(#c)"/>
  <path d="m41.892 248.34c-1.4276 1.2211-0.77243 4.0936 0.31262 5.6273 0.78244 1.1059 2.3968 1.5631 3.7515 1.5631s2.9603-0.46344 3.7515-1.5631c0.85419-1.1873 0.76643-2.9863 0.31263-4.3768-0.5506-1.687-1.7486-4.6047-3.4389-4.0641-1.1952 0.38227 0.69516 3.0038-0.31262 3.7515-1.1983 0.88898-3.2429-1.9077-4.3768-0.93787z" fill="#a05e00"/>
  <path d="m53.459 213.33c-1.4276 1.2211-0.77243 4.0936 0.31262 5.6273 0.78244 1.1059 2.4299 1.8609 3.7515 1.5631 1.3677-0.30814 1.6552-2.3365 2.8136-3.1262 1.4713-1.0031 4.6573-0.12872 5.002-1.8758 0.38539-1.9532-2.3859-4.0486-4.3768-4.0641-1.4019-0.0109-2.397 0.57628-3.1262 2.8136-0.46241 1.4186-3.2429-1.9077-4.3768-0.93787z" fill="#a05e00"/>
  <path d="m55.96 273.98c-1.4276 1.2211-0.77243 4.0936 0.31262 5.6273 0.78244 1.1059 2.4299 1.8609 3.7515 1.5631 1.3677-0.30814 1.6552-2.3365 2.8136-3.1262 1.4713-1.0031 4.6573-0.12872 5.002-1.8758 0.38539-1.9532-2.3859-4.0486-4.3768-4.0641-1.4019-0.0109-2.397 0.57628-3.1262 2.8136-0.46241 1.4186-3.2429-1.9077-4.3768-0.93787z" fill="#a05e00"/>
  <path d="m50.02 305.24c-1.4276 1.2211-0.77243 4.0936 0.31262 5.6273 0.78244 1.1059 2.4299 1.8609 3.7515 1.5631 1.3677-0.30814 1.6552-2.3365 2.8136-3.1262 1.4713-1.0031 4.6573-0.12872 5.002-1.8758 0.38539-1.9532-2.3859-4.0486-4.3768-4.0641-1.4019-0.0109-2.397 0.57628-3.1262 2.8136-0.46241 1.4186-3.2429-1.9077-4.3768-0.93787z" fill="#a05e00"/>
  <path d="m66.589 181.75c-1.4276 1.2211-0.77243 4.0936 0.31262 5.6273 0.78244 1.1059 2.4299 1.8609 3.7515 1.5631 1.3677-0.30814 1.6552-2.3365 2.8136-3.1262 1.4713-1.0031 4.6573-0.12872 5.002-1.8758 0.38539-1.9532-2.3859-4.0486-4.3768-4.0641-1.4019-0.0109-2.397 0.57628-3.1262 2.8136-0.46241 1.4186-3.2429-1.9077-4.3768-0.93787z" fill="#a05e00"/>
  <path d="m235.47 11.719c-9.7077 0.18398-19.274 1.5372-28.406 4.25-36.138 10.735-67.523 39.145-88.406 70.531-21.124 31.747-25.223 72.383-31.281 110.03-6.2638 38.925 19.337 87.169-5 118.19-4.9268 4.8674-10.445 6.6787-16.618 10.302 8.426-1.4165 24.998-9.2791 30.368-12.802 87.662-57.51 175.14-105.95 268.25-164.47 8.3066-5.2209 6.6031-18.945 6.25-28.75-0.53163-14.763-4.4963-30.115-12.5-42.531-14.315-22.208-35.734-41.369-60.031-51.75-19.273-8.2347-41.268-13.405-62.625-13z" fill="url(#b)"/>
  <path d="m63.281 274.12c-1.0798 2.0764-3.7717 4.7396-5.9062 2.0312-1.0868 1.2492 2.1122 4.7897 3.0938 1.75 0.84654-2.1282 3.5745-2.7866 5.1875-2.5312-0.61255-0.62988-1.4653-1.3342-2.375-1.25z" fill="#d38d5f"/>
  <path d="m48.062 250.19c-1.0756 1.9385-4.3048 0.74022-4.9688 1.0312 0.38185 3.4918 6.8042 3.214 4.9688-1.0312zm-1.9688 3.4375c-0.04293 0.0577 0.10364 0.0325 0 0z" fill="#d38d5f"/>
  <path d="m75.602 242.34c-1.9058-0.24499-4.6536 1.1848-4.8633 3.0948-0.20468 1.8646 4.1913 2.1154 3.9791 3.9791-0.15732 1.3814-3.7012 0.83001-3.537 2.2106 0.2753 2.3138 4.4277 2.9668 6.6318 2.2106 2.0104-0.68978 3.7072-3.1868 3.537-5.3054-0.22553-2.8065-2.955-5.8307-5.7476-6.1897z" fill="#deaa87"/>
  <path d="m13.13 165.81h15.631l11.88 3.2505 4.3768 5.503s3.0168-0.15611 3.7515-1.2505c1.7464-2.6013 1.4613-7.0414-0.62525-9.3788-3.1035-3.4766-13.756-2.501-13.756-2.501z" fill="#4c6e00"/>
  <path d="m35.37 152.15 9.7266-10.611 2.6527-8.8424 8.8424 3.537 5.3054-5.3054s16.801 13.264 14.148 7.9581 0.88424-15.032 0.88424-15.032l6.1897 2.6527v18.569s-1.7685 20.337-7.0739 15.916-10.611-11.495-10.611-11.495l-3.537 2.6527-10.611-3.537-4.4212 7.9582z" fill="#73cb2b"/>
  <path d="m62.031 136.28c-2.2434 1.686-4.8866 5.7786-8.0312 2.875-1.7998-1.6251-5.5578-1.7572-4.6562 1.5312-0.40868 4.4381-4.5269 7.1297-7.4062 10.031 1.5135 1.341 3.3943 1.8689 3.4375-0.65625 1.8367-4.5715 8.256-6.7323 11.844-3.0312 4.8029 0.14142 11.52-2.3972 14.159 3.3151 1.7561 1.4915 3.7317 5.8253 5.529 5.3412 1.6005-4.0718 2.5698-10.186 2.1875-13.438-4.4615 4.3002-10.561-1.0756-13.969-4.4062-0.94275-0.55418-1.8592-1.7915-3.0938-1.5625z" fill="#d5ffd5" opacity=".364"/>
  <path d="m82.062 160.41c-8.437 0.74291-18.227 0.30389-25.125 5.8125-2.9935 3.1656-2.0035 7.7802 0.84375 10.594 1.4528 3.1864 4.9623 4.9632 8.1515 3.2463l21.036-2.0588 5.0312-17.562c-3.3123-0.0624-6.6249-0.0897-9.9375-0.0312z" fill="url(#a)" opacity=".3248"/>
 </g>
</svg>
