<svg width="81" height="44" viewBox="0 0 81 44" fill="none" xmlns="http://www.w3.org/2000/svg">
<ellipse cx="40.8663" cy="21.4667" rx="12.2667" ry="12.8" fill="#BDBDBD"/>
<path d="M40.8516 44C23.3024 44 10.5368 34.5011 3.27501 27.644C-0.113807 24.4791 -0.113807 19.5209 3.27501 16.356C10.5368 9.4989 23.3024 0 40.8516 0C58.4009 0 71.2875 9.6044 78.5492 16.4615C81.817 19.5209 81.817 24.2681 78.5492 27.433C71.2875 34.5011 58.4009 44 40.8516 44ZM6.47928 20.6813C5.63207 21.5253 5.63207 22.6857 6.47928 23.5297C11.6835 28.3824 25.3598 39.7758 40.8516 39.7758C56.3434 39.7758 70.0197 28.2769 75.2239 23.3187C75.9501 22.5802 75.9501 21.5253 75.2239 20.7868C70.0197 15.8286 56.2223 4.32967 40.8516 4.32967C25.4809 4.32967 11.6835 15.7231 6.47928 20.6813Z" fill="#BDBDBD"/>
</svg>
