<svg width="598" height="598" viewBox="0 0 598 598" fill="none" xmlns="http://www.w3.org/2000/svg">
<path d="M523.25 236.708H510.792V174.417C511.555 158.737 506.091 143.391 495.59 131.723C485.089 120.055 470.401 113.011 454.729 112.125H143.271C127.599 113.011 112.911 120.055 102.409 131.723C91.9096 143.391 86.4454 158.737 87.2083 174.417V236.708H74.75C64.8416 236.72 55.3404 240.66 48.3343 247.668C41.3268 254.674 37.3865 264.175 37.375 274.083V398.667C37.3867 408.575 41.3266 418.076 48.3343 425.082C55.3404 432.09 64.8416 436.03 74.75 436.042H87.2083V473.417C87.2083 477.867 89.5832 481.98 93.4375 484.207C97.2918 486.432 102.042 486.432 105.896 484.207C109.75 481.98 112.125 477.866 112.125 473.417V436.042H485.875V473.417C485.875 477.867 488.25 481.98 492.104 484.207C495.958 486.432 500.708 486.432 504.563 484.207C508.417 481.98 510.792 477.866 510.792 473.417V436.042H523.25C533.158 436.03 542.66 432.09 549.666 425.082C556.673 418.076 560.614 408.575 560.625 398.667V274.083C560.613 264.175 556.673 254.674 549.666 247.668C542.66 240.66 533.158 236.72 523.25 236.708ZM143.271 137.042H454.729C463.783 137.949 472.117 142.373 477.941 149.364C483.765 156.352 486.615 165.349 485.875 174.417V239.006C478.608 241.565 472.313 246.311 467.851 252.593C463.39 258.873 460.982 266.381 460.958 274.086V336.377H137.042V274.086C137.018 266.381 134.61 258.873 130.149 252.593C125.687 246.312 119.392 241.566 112.125 239.006V174.417C111.385 165.349 114.235 156.352 120.059 149.364C125.884 142.374 134.217 137.949 143.271 137.042V137.042ZM62.2917 398.667V274.083C62.2936 270.78 63.6076 267.613 65.9435 265.277C68.2794 262.941 71.4466 261.627 74.7501 261.625H99.6667C102.97 261.627 106.137 262.941 108.473 265.277C110.809 267.613 112.123 270.78 112.125 274.083V411.125H74.7501C71.4467 411.123 68.2797 409.809 65.9436 407.473C63.6074 405.137 62.2937 401.97 62.2917 398.667L62.2917 398.667ZM137.042 361.292H460.958V411.125H137.042V361.292ZM535.708 398.667C535.706 401.97 534.392 405.137 532.056 407.473C529.721 409.809 526.553 411.123 523.25 411.125H485.875V274.083C485.877 270.78 487.191 267.613 489.527 265.277C491.863 262.941 495.03 261.627 498.333 261.625H523.25C526.553 261.627 529.72 262.941 532.057 265.277C534.393 267.613 535.706 270.78 535.708 274.083L535.708 398.667Z" fill="black" fill-opacity="0.4"/>
</svg>
