<svg width="300" height="300" viewBox="0 0 300 300" fill="none" xmlns="http://www.w3.org/2000/svg">
<path d="M183.017 155.004C183.017 175.921 166.068 192.876 145.159 192.876C124.25 192.876 107.301 175.921 107.301 155.004C107.301 134.087 124.25 117.131 145.159 117.131C166.068 117.131 183.017 134.087 183.017 155.004Z" fill="black" fill-opacity="0.36"/>
<path d="M188.423 187.462C118.115 257.797 51.0516 280.523 35.9089 264.292C31.5818 259.963 31.5818 253.471 31.5818 248.06C31.5818 218.843 59.7057 162.577 119.198 107.387C125.688 101.976 125.688 92.2371 120.279 85.7448C114.871 79.2526 105.135 79.2526 98.6451 84.663C84.584 97.6479 72.6855 110.632 61.8683 123.619C31.5817 77.0904 25.0915 43.5439 34.8256 32.7242C46.724 20.8212 91.0734 30.5606 142.994 69.5149C159.22 81.4179 175.443 95.4844 190.588 110.636C202.486 122.539 214.385 135.523 224.12 148.508C213.305 162.576 201.406 174.479 188.425 187.464L188.423 187.462ZM265.223 34.8904C276.04 45.7113 268.469 80.3397 240.345 124.702C230.609 112.799 220.875 101.978 210.058 90.0751C199.241 79.2542 187.343 68.4328 175.444 58.695C220.876 29.4785 254.406 24.0682 265.222 34.8892L265.223 34.8904ZM286.857 13.248C261.979 -11.6398 210.057 -0.818451 150.565 40.301C91.0727 -0.81964 38.0692 -11.6394 13.1936 13.248C-11.6848 38.1359 -0.867523 88.9943 41.3175 149.592C16.4391 185.301 1.29521 219.927 1.29521 248.061C1.29521 267.538 8.86658 279.441 14.2752 285.934C24.0109 295.673 35.9093 300 51.052 300C96.4841 300 160.299 259.962 210.058 210.188C220.875 199.367 231.693 187.465 240.345 175.562C269.551 221.011 276.04 254.553 265.223 265.373C256.571 274.029 231.691 270.784 202.487 255.634C194.916 252.387 186.262 254.552 181.936 262.126C177.609 269.7 180.855 278.358 188.426 282.685C211.141 294.588 232.775 299.998 249.001 299.998C264.145 299.998 276.043 295.67 285.778 285.932C310.656 261.044 299.839 209.102 258.735 149.588C296.596 96.5682 313.9 41.3822 286.86 13.2476L286.857 13.248Z" fill="black" fill-opacity="0.36"/>
</svg>
