<svg width="325" height="325" viewBox="0 0 325 325" fill="none" xmlns="http://www.w3.org/2000/svg">
<path d="M197.721 196.84C133.272 261.314 71.7973 282.146 57.9165 267.267C53.95 263.299 53.95 257.348 53.95 252.388C53.95 225.606 79.7302 174.029 134.265 123.438C140.214 118.478 140.214 109.551 135.256 103.599C130.298 97.6482 121.374 97.6482 115.425 102.608C102.535 114.511 91.6284 126.413 81.7126 138.317C53.9499 95.6662 48.0005 64.9153 56.9234 54.9972C67.8303 44.0861 108.484 53.0139 156.078 88.722C170.951 99.6331 185.823 112.527 199.705 126.416C210.612 137.327 221.519 149.23 230.444 161.132C220.529 174.028 209.622 184.939 197.723 196.842L197.721 196.84ZM268.121 56.9828C278.037 66.902 271.096 98.6447 245.316 139.31C236.392 128.399 227.469 118.48 217.553 107.569C207.638 97.6497 196.731 87.7301 185.824 78.8038C227.47 52.0219 258.207 47.0636 268.121 56.9828ZM287.952 37.144C265.147 14.3302 217.552 24.2498 163.018 61.9426C108.483 24.2487 59.8968 14.3305 37.0942 37.144C14.289 59.9579 24.2048 106.578 62.8744 162.126C40.0692 194.859 26.1873 226.599 26.1873 252.389C26.1873 270.243 33.1277 281.154 38.0856 287.106C47.01 296.033 57.9168 300 71.7977 300C113.444 300 171.941 263.299 217.554 217.673C227.469 207.753 237.385 196.842 245.316 185.931C272.088 227.593 278.037 258.341 268.121 268.259C260.19 276.193 237.383 273.219 210.613 259.331C203.673 256.355 195.74 258.339 191.775 265.282C187.808 272.225 190.784 280.161 197.724 284.128C218.546 295.039 238.377 299.999 253.251 299.999C267.133 299.999 278.04 296.031 286.963 287.104C309.768 264.29 299.852 216.677 262.174 162.122C296.88 113.521 312.742 62.9337 287.955 37.1437L287.952 37.144Z" fill="url(#paint0_radial_1352_397)"/>
<path d="M190.455 167.086C190.455 186.26 174.919 201.802 155.752 201.802C136.585 201.802 121.049 186.26 121.049 167.086C121.049 147.912 136.585 132.37 155.752 132.37C174.919 132.37 190.455 147.912 190.455 167.086Z" fill="#E11C1C"/>
<defs>
<radialGradient id="paint0_radial_1352_397" cx="0" cy="0" r="1" gradientUnits="userSpaceOnUse" gradientTransform="translate(162.5 162.5) rotate(90) scale(137.5)">
<stop offset="0.135417" stop-color="#E11C1C"/>
<stop offset="1" stop-color="#FF8C22"/>
</radialGradient>
</defs>
</svg>
