<svg width="81" height="54" viewBox="0 0 81 54" fill="none" xmlns="http://www.w3.org/2000/svg">
<path fill-rule="evenodd" clip-rule="evenodd" d="M56.4845 7.63065C51.7905 6.01921 46.5684 5 40.8516 5C23.3024 5 10.5368 14.4989 3.27501 21.356C-0.113807 24.5209 -0.113807 29.4791 3.27501 32.644C5.49715 34.7423 8.23466 37.088 11.4669 39.3332L16.0284 36.1208C11.8215 33.3047 8.50721 30.4206 6.47928 28.5297C5.63207 27.6857 5.63207 26.5253 6.47928 25.6813C11.6835 20.7231 25.4809 9.32967 40.8516 9.32967C44.5542 9.32967 48.1656 9.99692 51.5875 11.0793L56.4845 7.63065ZM70.3373 14.7537L65.6283 18.0699C69.8565 20.9236 73.194 23.8528 75.2239 25.7868C75.9501 26.5253 75.9501 27.5802 75.2239 28.3187C70.0197 33.2769 56.3434 44.7758 40.8516 44.7758C37.1452 44.7758 33.5427 44.1237 30.1353 43.0649L25.3547 46.4316C30.0041 48.0071 35.1778 49 40.8516 49C58.4009 49 71.2875 39.5011 78.5492 32.433C81.817 29.2681 81.817 24.5209 78.5492 21.4615C76.3287 19.3647 73.5822 17.0111 70.3373 14.7537Z" fill="#BDBDBD"/>
<path fill-rule="evenodd" clip-rule="evenodd" d="M46.1473 14.9103C44.5479 14.113 42.757 13.6667 40.8663 13.6667C34.0916 13.6667 28.5996 19.3974 28.5996 26.4667C28.5996 26.7303 28.6073 26.9922 28.6223 27.2519L46.1473 14.9103ZM36.6377 38.4858C37.9559 38.9909 39.3802 39.2667 40.8663 39.2667C47.5104 39.2667 52.9208 33.7546 53.1269 26.8737L36.6377 38.4858Z" fill="#BDBDBD"/>
<line x1="73.2745" y1="4.18015" x2="7.18015" y2="50.7255" stroke="#BDBDBD" stroke-width="6" stroke-linecap="round"/>
</svg>
