<?xml version="1.0" encoding="utf-8"?>
<svg viewBox="0 0 300 300" xmlns="http://www.w3.org/2000/svg">
  <path d="M 278.364 122.673 C 282.129 126.545 284.418 132.064 284.5 137.465 L 284.5 200.562 C 284.419 205.963 282.129 211.48 278.364 215.352 C 274.492 219.119 268.972 221.407 263.571 221.488 L 259.262 221.488 L 259.262 238.417 C 259.128 241.171 257.425 244.12 255.107 245.614 C 252.655 246.875 249.249 246.874 246.796 245.613 C 244.48 244.12 242.777 241.171 242.643 238.417 L 242.643 221.488 L 57.357 221.488 L 57.357 238.417 C 57.223 241.171 55.519 244.121 53.203 245.614 C 50.75 246.875 47.344 246.875 44.892 245.614 C 42.575 244.12 40.872 241.171 40.738 238.417 L 40.738 221.488 L 36.427 221.488 C 31.027 221.407 25.508 219.119 21.636 215.352 C 17.871 211.48 15.582 205.961 15.5 200.56 L 15.5 137.463 C 15.581 132.062 17.871 126.545 21.636 122.673 C 25.508 118.906 31.029 116.618 36.429 116.536 L 40.738 116.536 L 40.738 87.024 C 40.426 78.719 43.434 70.271 48.95 64.028 C 54.579 57.887 62.818 53.986 71.131 53.441 L 228.982 53.444 C 237.295 53.989 245.421 57.888 251.05 64.028 C 256.566 70.272 259.574 78.719 259.262 87.024 L 259.262 116.536 L 263.573 116.536 C 268.974 116.618 274.492 118.906 278.364 122.673 Z M 60.911 75.581 C 58.147 78.782 56.932 82.617 57.35 86.825 L 57.357 118.356 C 60.791 119.893 63.643 122.022 66.115 125.423 C 68.512 128.877 69.916 133.256 69.976 137.46 L 69.976 167.014 L 230.024 167.014 L 230.024 137.466 C 230.084 133.262 231.488 128.877 233.884 125.423 C 236.357 122.021 239.208 119.892 242.643 118.356 L 242.643 86.988 C 243.06 82.779 241.852 78.782 239.089 75.581 C 236.438 72.283 232.951 70.432 228.785 70.059 L 71.215 70.059 C 67.049 70.433 63.563 72.283 60.911 75.581 Z M 33.383 203.605 C 34.241 204.572 35.14 204.944 36.431 204.87 L 53.357 204.87 L 53.357 137.465 C 53.432 136.174 53.06 135.278 52.093 134.42 C 51.236 133.454 50.336 133.08 49.046 133.155 L 36.429 133.155 C 35.139 133.08 34.295 133.506 33.382 134.419 C 32.47 135.332 32.044 136.176 32.119 137.466 L 32.119 200.56 C 32.044 201.851 32.416 202.747 33.383 203.605 Z M 69.976 204.87 L 230.024 204.87 L 230.024 183.631 L 69.976 183.631 L 69.976 204.87 Z M 267.881 137.465 C 267.956 136.174 267.584 135.278 266.618 134.419 C 265.758 133.453 264.86 133.08 263.57 133.155 L 250.953 133.155 C 249.663 133.08 248.766 133.452 247.908 134.419 C 246.941 135.277 246.568 136.176 246.643 137.466 L 246.643 204.87 L 263.571 204.87 C 264.862 204.944 265.759 204.572 266.616 203.606 C 267.583 202.748 267.956 201.849 267.881 200.559 L 267.881 137.465 Z" fill="black" style="stroke-width: 4px; vector-effect: non-scaling-stroke; fill-opacity: 0.4;"/>
</svg>
