<svg width="598" height="598" viewBox="0 0 598 598" fill="none" xmlns="http://www.w3.org/2000/svg">
<path d="M523.25 236.708H510.792V174.417C511.555 158.737 506.091 143.391 495.59 131.723C485.089 120.055 470.401 113.011 454.729 112.125H143.271C127.599 113.011 112.911 120.055 102.409 131.723C91.9096 143.391 86.4454 158.737 87.2083 174.417V236.708H74.75C64.8416 236.72 55.3404 240.66 48.3343 247.668C41.3268 254.674 37.3865 264.175 37.375 274.083V398.667C37.3867 408.575 41.3266 418.076 48.3343 425.082C55.3404 432.09 64.8416 436.03 74.75 436.042H87.2083V473.417C87.2083 477.867 89.5832 481.98 93.4375 484.207C97.2918 486.432 102.042 486.432 105.896 484.207C109.75 481.98 112.125 477.866 112.125 473.417V436.042H485.875V473.417C485.875 477.867 488.25 481.98 492.104 484.207C495.958 486.432 500.708 486.432 504.562 484.207C508.417 481.98 510.792 477.866 510.792 473.417V436.042H523.25C533.158 436.03 542.66 432.09 549.666 425.082C556.673 418.076 560.614 408.575 560.625 398.667V274.083C560.613 264.175 556.673 254.674 549.666 247.668C542.66 240.66 533.158 236.72 523.25 236.708ZM143.271 137.042H454.729C463.783 137.949 472.117 142.373 477.941 149.364C483.765 156.352 486.615 165.349 485.875 174.417V239.006C478.608 241.565 472.313 246.311 467.851 252.593C463.39 258.873 460.982 266.381 460.958 274.086V336.378H137.042V274.086C137.018 266.381 134.61 258.873 130.149 252.593C125.687 246.312 119.392 241.566 112.125 239.006V174.417C111.385 165.349 114.235 156.352 120.059 149.364C125.884 142.374 134.217 137.949 143.271 137.042ZM62.2917 398.667V274.083C62.2936 270.78 63.6076 267.613 65.9435 265.277C68.2794 262.941 71.4466 261.627 74.7501 261.625H99.6667C102.97 261.627 106.137 262.941 108.473 265.277C110.809 267.613 112.123 270.78 112.125 274.083V411.125H74.7501C71.4467 411.123 68.2797 409.809 65.9436 407.473C63.6074 405.137 62.2936 401.97 62.2917 398.667ZM137.042 361.292H460.958V411.125H137.042V361.292ZM535.708 398.667C535.706 401.97 534.392 405.137 532.056 407.473C529.721 409.809 526.553 411.123 523.25 411.125H485.875V274.083C485.877 270.78 487.191 267.613 489.527 265.277C491.863 262.941 495.03 261.627 498.333 261.625H523.25C526.553 261.627 529.72 262.941 532.057 265.277C534.393 267.613 535.706 270.78 535.708 274.083L535.708 398.667Z" fill="black" fill-opacity="0.4"/>
<path d="M523.252 235.208H523.25H512.292V174.453C513.064 158.39 507.462 142.673 496.705 130.72L495.59 131.723L496.705 130.72C485.939 118.758 470.881 111.535 454.814 110.627L454.772 110.625H454.729H143.271H143.228L143.186 110.627C127.119 111.535 112.061 118.758 101.295 130.72L101.294 130.72C90.5381 142.673 84.9365 158.39 85.7083 174.453V235.208H74.75H74.7482C64.443 235.22 54.5609 239.318 47.2738 246.607C39.9851 253.894 35.8869 263.776 35.875 274.082V274.083L35.875 398.667L35.875 398.668C35.8871 408.974 39.985 418.856 47.2738 426.143C54.5609 433.432 64.443 437.53 74.7483 437.542H74.75H85.7083V473.417C85.7083 478.403 88.3692 483.011 92.6872 485.505L92.6876 485.506C97.0059 487.999 102.328 487.999 106.646 485.506L106.646 485.505C110.964 483.011 113.625 478.402 113.625 473.417V437.542H484.375V473.417C484.375 478.403 487.036 483.011 491.354 485.505L491.354 485.506C495.673 487.999 500.994 487.999 505.312 485.506L505.313 485.505C509.631 483.011 512.292 478.402 512.292 473.417V437.542H523.25H523.252C533.557 437.53 543.439 433.432 550.727 426.143C558.015 418.856 562.113 408.974 562.125 398.668V398.667V274.083V274.082C562.113 263.776 558.015 253.894 550.726 246.607C543.439 239.318 533.557 235.22 523.252 235.208ZM459.458 274.086V334.878H138.542L138.542 274.086L138.542 274.081C138.517 266.067 136.013 258.257 131.372 251.724C126.937 245.481 120.76 240.696 113.625 237.959V174.417V174.356L113.62 174.295C112.912 165.619 115.639 157.011 121.212 150.324L121.212 150.324C126.769 143.655 134.713 139.427 143.347 138.542H454.653C463.287 139.426 471.231 143.654 476.788 150.324L476.788 150.324C482.361 157.011 485.088 165.619 484.38 174.295L484.375 174.356V174.417V237.959C477.24 240.695 471.063 245.481 466.628 251.725C461.987 258.257 459.483 266.067 459.458 274.081V274.086ZM63.7917 398.666V274.084C63.7934 271.179 64.9491 268.393 67.0042 266.337C69.0592 264.282 71.8452 263.127 74.7509 263.125H99.6658C102.571 263.127 105.357 264.282 107.413 266.338C109.468 268.393 110.623 271.179 110.625 274.084V409.625H74.751C71.8455 409.623 69.0595 408.468 67.0042 406.412C64.9489 404.357 63.7934 401.571 63.7917 398.666ZM138.542 362.792H459.458V409.625H138.542V362.792ZM534.208 398.666C534.207 401.571 533.051 404.357 530.996 406.413C528.941 408.468 526.155 409.623 523.249 409.625H487.375V274.084C487.377 271.179 488.532 268.393 490.588 266.337C492.643 264.282 495.429 263.127 498.334 263.125H523.249C526.155 263.127 528.941 264.282 530.996 266.338C533.051 268.393 534.207 271.179 534.208 274.084L534.208 398.666Z" stroke="black" stroke-opacity="0.4" stroke-width="3"/>
</svg>
