<?xml version="1.0" encoding="utf-8"?>
<svg viewBox="0 0 300 300" xmlns="http://www.w3.org/2000/svg">
  <path d="M 278.011 122.987 C 281.721 126.779 283.937 132.123 284 137.427 L 284 200.524 C 283.937 205.828 281.721 211.17 278.01 214.962 C 274.219 218.671 268.877 220.887 263.571 220.95 L 258.762 220.95 L 258.762 238.379 C 258.661 241.008 257.083 243.74 254.857 245.142 C 252.529 246.37 249.323 246.458 247.046 245.142 C 244.77 243.826 243.243 241.008 243.143 238.379 L 243.143 220.95 L 56.857 220.95 L 56.857 238.379 C 56.756 241.008 55.179 243.739 52.953 245.142 C 50.626 246.37 47.419 246.457 45.143 245.142 C 42.866 243.826 41.339 241.008 41.238 238.379 L 41.238 220.95 L 36.426 220.95 C 31.121 220.887 25.781 218.671 21.989 214.962 C 18.278 211.17 16.062 205.827 16 200.522 L 16 137.426 C 16.062 132.121 18.238 126.739 21.989 122.987 C 25.741 119.236 31.123 117.061 36.428 116.997 L 41.238 116.997 L 41.238 86.98 C 40.907 78.765 43.855 70.484 49.321 64.324 C 54.874 58.242 62.912 54.424 71.131 53.903 L 228.953 53.905 C 237.173 54.426 245.126 58.242 250.679 64.325 C 256.145 70.485 259.093 78.765 258.762 86.98 L 258.762 116.997 L 263.573 116.997 C 268.878 117.061 274.219 119.276 278.011 122.987 Z M 60.527 75.222 C 57.716 78.509 56.445 82.524 56.852 86.828 L 56.857 118.641 C 60.345 120.121 63.289 122.329 65.709 125.674 C 68.071 129.06 69.428 133.295 69.476 137.424 L 69.476 167.476 L 230.524 167.476 L 230.524 137.429 C 230.571 133.299 231.929 129.06 234.291 125.674 C 236.711 122.328 239.654 120.121 243.143 118.641 L 243.143 86.95 C 243.551 82.646 242.241 78.544 239.473 75.222 C 236.704 71.9 233.076 69.916 228.802 69.522 L 71.197 69.522 C 66.924 69.916 63.253 71.866 60.527 75.222 Z M 33.029 203.922 C 33.969 204.942 35.043 205.387 36.429 205.331 L 53.857 205.331 L 53.857 137.427 C 53.913 136.041 53.468 134.968 52.447 134.027 C 51.506 133.007 50.433 132.561 49.046 132.617 L 36.428 132.617 C 35.042 132.561 33.969 133.007 33.029 134.026 C 32.009 134.968 31.563 136.042 31.619 137.428 L 31.619 200.522 C 31.563 201.908 32.009 202.981 33.029 203.922 Z M 69.476 205.331 L 230.524 205.331 L 230.524 183.093 L 69.476 183.093 L 69.476 205.331 Z M 268.381 137.427 C 268.437 136.041 267.991 134.968 266.971 134.026 C 266.031 133.007 264.956 132.561 263.57 132.617 L 250.952 132.617 C 249.566 132.561 248.494 133.007 247.552 134.027 C 246.532 134.968 246.087 136.042 246.143 137.428 L 246.143 205.331 L 263.571 205.331 C 264.957 205.387 265.991 204.902 266.97 203.922 C 267.95 202.941 268.437 201.907 268.381 200.521 L 268.381 137.427 Z" fill="black" style="vector-effect: non-scaling-stroke; stroke-width: 3px; fill-opacity: 0.4;"/>
</svg>