<svg width="532" height="382" viewBox="0 0 532 382" fill="none" xmlns="http://www.w3.org/2000/svg">
<path d="M490.25 128.708H477.792V66.4167C478.555 50.7366 473.091 35.3914 462.59 23.7235C452.089 12.0555 437.401 5.01054 421.729 4.125H110.271C94.5987 5.01069 79.9114 12.0555 69.4095 23.7235C58.9096 35.3914 53.4454 50.7366 54.2083 66.4167V128.708H41.75C31.8416 128.72 22.3404 132.66 15.3343 139.668C8.32678 146.674 4.38646 156.175 4.375 166.083V290.667C4.38668 300.575 8.32663 310.076 15.3343 317.082C22.3404 324.09 31.8416 328.03 41.75 328.042H54.2083V365.417C54.2083 369.867 56.5832 373.98 60.4375 376.207C64.2918 378.432 69.0417 378.432 72.8958 376.207C76.7501 373.98 79.125 369.866 79.125 365.417V328.042H452.875V365.417C452.875 369.867 455.25 373.98 459.104 376.207C462.958 378.432 467.708 378.432 471.563 376.207C475.417 373.98 477.792 369.866 477.792 365.417V328.042H490.25C500.158 328.03 509.66 324.09 516.666 317.082C523.673 310.076 527.614 300.575 527.625 290.667V166.083C527.613 156.175 523.673 146.674 516.666 139.668C509.66 132.66 500.158 128.72 490.25 128.708ZM110.271 29.0417H421.729C430.783 29.9488 439.117 34.3733 444.941 41.364C450.765 48.3521 453.615 57.3495 452.875 66.4167V131.006C445.608 133.565 439.313 138.311 434.851 144.593C430.39 150.873 427.982 158.381 427.958 166.086V228.377H104.042V166.086C104.018 158.381 101.61 150.873 97.1487 144.593C92.6871 138.312 86.3917 133.566 79.125 131.006V66.4167C78.3853 57.3495 81.2351 48.3521 87.0595 41.364C92.884 34.3738 101.217 29.9491 110.271 29.0417V29.0417ZM29.2917 290.667V166.083C29.2936 162.78 30.6076 159.613 32.9435 157.277C35.2794 154.941 38.4466 153.627 41.7501 153.625H66.6667C69.9701 153.627 73.1371 154.941 75.4733 157.277C77.8095 159.613 79.1232 162.78 79.1251 166.083V303.125H41.7501C38.4467 303.123 35.2797 301.809 32.9436 299.473C30.6074 297.137 29.2937 293.97 29.2917 290.667L29.2917 290.667ZM104.042 253.292H427.958V303.125H104.042V253.292ZM502.708 290.667C502.706 293.97 501.392 297.137 499.056 299.473C496.721 301.809 493.553 303.123 490.25 303.125H452.875V166.083C452.877 162.78 454.191 159.613 456.527 157.277C458.863 154.941 462.03 153.627 465.333 153.625H490.25C493.553 153.627 496.72 154.941 499.057 157.277C501.393 159.613 502.706 162.78 502.708 166.083L502.708 290.667Z" fill="black" fill-opacity="0.4" stroke="#898989" stroke-width="7"/>
</svg>
