<?xml version="1.0" encoding="utf-8"?>
<svg viewBox="500.972 178.81 20 14.375" width="20" height="14.375" xmlns="http://www.w3.org/2000/svg" xmlns:bx="https://boxy-svg.com">
  <defs>
    <clipPath id="clip0_1674_1768">
      <rect width="20" height="20" fill="white"/>
    </clipPath>
  </defs>
  <g clip-path="url(#clip0_1674_1768)" transform="matrix(1, 0, 0, 1, 500.971771, 175.81041)">
    <path fill-rule="evenodd" clip-rule="evenodd" d="M19.582 5.2447C19.352 4.3611 18.6743 3.66531 17.8138 3.42916C16.2542 3 10 3 10 3C10 3 3.7458 3 2.18614 3.42916C1.32557 3.66531 0.647841 4.3611 0.417841 5.2447C0 6.84612 0 10.1875 0 10.1875C0 10.1875 0 13.5288 0.417841 15.1303C0.647841 16.0139 1.32557 16.7097 2.18614 16.946C3.7458 17.375 10 17.375 10 17.375C10 17.375 16.2542 17.375 17.8138 16.946C18.6743 16.7097 19.352 16.0139 19.582 15.1303C20 13.5288 20 10.1875 20 10.1875C20 10.1875 20 6.84612 19.582 5.2447ZM8.12509 13.6255V7.37549L13.1251 10.5006L8.12509 13.6255Z" fill="#FF0000"/>
  </g>
  <path d="M 425.503 122.113 L 428.63 127.117 L 422.376 127.117 L 425.503 122.113 Z" style="stroke: rgb(0, 0, 0); stroke-width: 0px; fill: rgb(255, 255, 255);" transform="matrix(0, 1, -1, 0, 636.212463, -239.192383)" bx:shape="triangle 422.376 122.113 6.254 5.004 0.5 0 1@278e08c4"/>
</svg>