<?xml version="1.0" encoding="UTF-8" standalone="no"?>
<svg
   xmlns:dc="http://purl.org/dc/elements/1.1/"
   xmlns:cc="http://creativecommons.org/ns#"
   xmlns:rdf="http://www.w3.org/1999/02/22-rdf-syntax-ns#"
   xmlns:svg="http://www.w3.org/2000/svg"
   xmlns="http://www.w3.org/2000/svg"
   xmlns:sodipodi="http://sodipodi.sourceforge.net/DTD/sodipodi-0.dtd"
   xmlns:inkscape="http://www.inkscape.org/namespaces/inkscape"
   width="19.999983"
   height="19.000008"
   viewBox="0 0 19.999983 19.000008"
   version="1.1"
   id="svg831"
   sodipodi:docname="icon-star-half.svg"
   style="fill:none"
   inkscape:version="0.92.5 (2060ec1f9f, 2020-04-08)">
  <metadata
     id="metadata837">
    <rdf:RDF>
      <cc:Work
         rdf:about="">
        <dc:format>image/svg+xml</dc:format>
        <dc:type
           rdf:resource="http://purl.org/dc/dcmitype/StillImage" />
      </cc:Work>
    </rdf:RDF>
  </metadata>
  <defs
     id="defs835" />
  <sodipodi:namedview
     pagecolor="#ffffff"
     bordercolor="#666666"
     borderopacity="1"
     objecttolerance="10"
     gridtolerance="10"
     guidetolerance="10"
     inkscape:pageopacity="0"
     inkscape:pageshadow="2"
     inkscape:window-width="1198"
     inkscape:window-height="948"
     id="namedview833"
     showgrid="false"
     inkscape:zoom="9.8333333"
     inkscape:cx="-8.3559301"
     inkscape:cy="9"
     inkscape:window-x="0"
     inkscape:window-y="950"
     inkscape:window-maximized="0"
     inkscape:current-layer="svg831" />
  <path
     d="M 10.000002,8.1671631e-6 V 15.270008 l -6.1799999,3.73 1.64,-7.03 L 2.0565151e-6,7.2400082 7.1900021,6.6300082 Z"
     id="path825"
     inkscape:connector-curvature="0"
     style="fill:#f5c543" />
  <path
     d="m 10.258402,14.841908 -0.2584,-0.1559 -0.2583999,0.1559 -5.16547,3.1177 1.3708,-5.876 0.06856,-0.2939 -0.2281,-0.1976 -4.56431,-3.9540698 6.00919,-0.50982 0.30043,-0.02549 0.11766,-0.27761 2.3496399,-5.54381 2.3496,5.54381 0.1177,0.27761 0.3004,0.02549 6.0092,0.50982 -4.5643,3.9540698 -0.2281,0.1976 0.0686,0.2939 1.3708,5.876 z"
     id="path827"
     inkscape:connector-curvature="0"
     style="stroke:#b7b7b7" />
  <path
     d="m 5.3322621,16.919208 3.66774,-2.2137 0.9999999,-0.6055 v 1.17 l -6.1799999,3.73 1.64,-7.03 L 2.0565151e-6,7.2400082 7.1900021,6.6300082 10.000002,8.1671631e-6 V 2.6000082 l -0.9999999,2.32203 -1.1246,2.65341 -5.42923,0.46066 4.12481,3.5732998 z"
     id="path829"
     inkscape:connector-curvature="0"
     style="fill:#f0a43b" />
</svg>
