<svg width="20" height="20" viewBox="0 0 20 20" fill="#808080" xmlns="http://www.w3.org/2000/svg">
<path fill-rule="evenodd" clip-rule="evenodd" d="M19.582 4.7447C19.352 3.8611 18.6743 3.16531 17.8138 2.92916C16.2542 2.5 10 2.5 10 2.5C10 2.5 3.7458 2.5 2.18614 2.92916C1.32557 3.16531 0.647841 3.8611 0.417841 4.7447C0 6.34612 0 9.6875 0 9.6875C0 9.6875 0 13.0288 0.417841 14.6303C0.647841 15.5139 1.32557 16.2097 2.18614 16.446C3.7458 16.875 10 16.875 10 16.875C10 16.875 16.2542 16.875 17.8138 16.446C18.6743 16.2097 19.352 15.5139 19.582 14.6303C20 13.0288 20 9.6875 20 9.6875C20 9.6875 20 6.34612 19.582 4.7447M8.12531 13.1253V6.87531L13.1253 10.0004L8.12531 13.1253Z"/>
</svg>
