<svg width="24" height="24" viewBox="0 0 24 24" fill="none" xmlns="http://www.w3.org/2000/svg">
<path d="M12 2V17.27L5.82 21L7.46 13.97L2 9.24L9.19 8.63L12 2Z" fill="#F5C543"/>
<path d="M12.2584 16.8419L12 16.686L11.7416 16.8419L6.57613 19.9596L7.94693 14.0836L8.01549 13.7897L7.78739 13.5921L3.22308 9.63803L9.23227 9.12821L9.5327 9.10272L9.65036 8.82511L12 3.2813L14.3496 8.82511L14.4673 9.10272L14.7677 9.12821L20.7769 9.63803L16.2126 13.5921L15.9845 13.7897L16.0531 14.0836L17.4239 19.9596L12.2584 16.8419Z" stroke="#B7B7B7"/>
<path d="M7.33226 18.9192L11 16.7055L12 16.1V17.27L5.82 21L7.46 13.97L2 9.24L9.19 8.63L12 2V4.6L11 6.92203L9.8754 9.57544L4.44617 10.0361L8.57098 13.6094L7.33226 18.9192Z" fill="#F0A43B"/>
</svg>
